<?xml version="1.0" encoding="UTF-8"?>
<svg version="1.1" xmlns="http://www.w3.org/2000/svg" width="1000" height="1000">
<path d="M0 0 C330 0 660 0 1000 0 C1000 330 1000 660 1000 1000 C670 1000 340 1000 0 1000 C0 670 0 340 0 0 Z " fill="#050C17" transform="translate(0,0)"/>
<path d="M0 0 C6.03577585 0.06608379 11.13065985 0.83309905 16.890625 2.57421875 C18.47947045 3.03477242 20.06859139 3.49437651 21.65795898 3.953125 C22.46860809 4.18974854 23.2792572 4.42637207 24.11447144 4.67016602 C28.0582823 5.80566417 32.02263743 6.86175228 35.98828125 7.91796875 C37.60768304 8.35133614 39.22706754 8.78476812 40.84643555 9.21826172 C41.66639008 9.4373822 42.4863446 9.65650269 43.33114624 9.88226318 C45.95657954 10.5843147 48.58150325 11.28824392 51.20629883 11.99267578 C59.27292143 14.15720616 67.34042529 16.31811734 75.4131012 18.4599762 C78.73743309 19.34296733 82.060518 20.2305905 85.38339233 21.11904907 C86.933461 21.53230611 88.48408224 21.94349735 90.03530884 22.35238647 C117.9984564 29.72582636 117.9984564 29.72582636 123.5625 36.375 C124.375 40.1875 124.375 40.1875 124.5625 43.375 C120.62199508 46.03974758 116.7745007 47.27657972 112.1875 48.3125 C105.0197335 49.99860393 97.90802617 51.86148699 90.79779053 53.77401733 C86.69418521 54.87731717 82.58920644 55.97549113 78.484375 57.07421875 C77.59355225 57.31268021 76.70272949 57.55114166 75.78491211 57.79682922 C57.71160001 62.63308629 39.63510331 67.45292363 21.50317383 72.06542969 C20.09976481 72.42249724 18.69636314 72.77959371 17.29296875 73.13671875 C16.59683975 73.3137735 15.90071075 73.49082825 15.18348694 73.67324829 C10.44118344 74.8836684 5.7083364 76.12698792 0.9788208 77.38641357 C-2.50024723 78.31169158 -5.98185835 79.22719038 -9.46368408 80.14202881 C-11.11638497 80.57891773 -12.767945 81.02015276 -14.41815186 81.46636963 C-19.73138325 82.90187522 -25.05524888 84.22320733 -30.4375 85.375 C-31.54396881 85.61366287 -31.54396881 85.61366287 -32.67279053 85.85714722 C-45.76609434 88.49368219 -55.55977652 86.05566667 -67.9375 81.5625 C-69.77810659 80.92485775 -71.61994118 80.2907509 -73.46289062 79.65991211 C-77.38947305 78.31013372 -81.30821372 76.9402417 -85.22265625 75.55566406 C-91.69040935 73.27487865 -98.18608205 71.08108596 -104.6875 68.8984375 C-123.35829128 62.61827925 -141.98973994 56.28750012 -160.4375 49.375 C-160.56940753 40.49565845 -160.56940753 40.49565845 -158.25 37.5625 C-157.84394531 37.01980469 -157.43789063 36.47710937 -157.01953125 35.91796875 C-148.06633924 27.18584321 -130.22289925 26.18684756 -118.3125 23.8125 C-115.41356289 23.23032317 -112.51521665 22.64527262 -109.6171875 22.05859375 C-108.92123978 21.91819168 -108.22529205 21.77778961 -107.508255 21.63313293 C-102.02019345 20.5167778 -96.56709678 19.27350421 -91.12133789 17.96533203 C-88.73846925 17.44120064 -86.42311292 17.07539427 -84 16.8125 C-80.48189606 16.49992844 -80.48189606 16.49992844 -77.4375 15.375 C-74.41112275 14.36620758 -71.72184536 13.98202878 -68.5625 13.71875 C-66.33668185 13.4200651 -66.33668185 13.4200651 -63.90625 12.5078125 C-58.99131528 10.90270995 -53.98644307 9.84787384 -48.9375 8.75 C-47.91785156 8.52054687 -46.89820313 8.29109375 -45.84765625 8.0546875 C-40.97637457 6.99048032 -36.4579 6.04833014 -31.4375 6.375 C-30.44788434 9.03818588 -29.47073149 11.70493307 -28.5 14.375 C-28.22220703 15.11878906 -27.94441406 15.86257813 -27.65820312 16.62890625 C-25.87158764 21.57976843 -24.90835001 26.13008851 -24.4375 31.375 C-29.1875 34.375 -29.1875 34.375 -31.4375 34.375 C-31.4375 35.035 -31.4375 35.695 -31.4375 36.375 C-24.93431579 36.04432962 -23.00095612 35.17247952 -18.4375 30.375 C-13.99201657 28.6776336 -10.17761418 28.14377492 -5.4375 28.375 C-5.4375 27.715 -5.4375 27.055 -5.4375 26.375 C-8.0775 26.375 -10.7175 26.375 -13.4375 26.375 C-13.1073125 20.21149991 -11.7808229 14.73294585 -9.9375 8.875 C-9.71167236 8.15634766 -9.48584473 7.43769531 -9.25317383 6.69726562 C-7.18823811 0.30597995 -6.71132738 0.18465028 0 0 Z " fill="#8F919D" transform="translate(535.4375,308.625)"/>
<path d="M0 0 C2.875 1.4375 2.875 1.4375 4.25 4.0625 C4.45625 4.84625 4.6625 5.63 4.875 6.4375 C6.195 6.4375 7.515 6.4375 8.875 6.4375 C9.535 10.3975 10.195 14.3575 10.875 18.4375 C11.535 18.4375 12.195 18.4375 12.875 18.4375 C12.545 21.0775 12.215 23.7175 11.875 26.4375 C12.535 26.7675 13.195 27.0975 13.875 27.4375 C13.02197465 31.98798695 10.34774293 34.37317204 7.125 37.5 C6.5990625 38.02916016 6.073125 38.55832031 5.53125 39.10351562 C0.8968191 43.67485402 -2.43530023 46.4375 -9.125 46.4375 C-11.57774531 47.79296451 -13.84603796 49.22152939 -16.0625 50.9375 C-19.25801598 53.26151163 -22.32559449 55.4375 -26.375 55.4375 C-28.125 54.4375 -28.125 54.4375 -29.4375 52.0625 C-30.125 49.4375 -30.125 49.4375 -29.125 46.4375 C-30.07375 46.458125 -31.0225 46.47875 -32 46.5 C-35.125 46.4375 -35.125 46.4375 -37.125 45.4375 C-37.51810414 43.11461188 -37.63249695 40.81904824 -37.78125 38.46875 C-37.8946875 37.7984375 -38.008125 37.128125 -38.125 36.4375 C-38.785 36.1075 -39.445 35.7775 -40.125 35.4375 C-40.5390625 32.93359375 -40.5390625 32.93359375 -40.75 29.875 C-40.82476563 28.86308594 -40.89953125 27.85117187 -40.9765625 26.80859375 C-41.05003906 25.63490234 -41.05003906 25.63490234 -41.125 24.4375 C-40.465 24.4375 -39.805 24.4375 -39.125 24.4375 C-39.125 22.7875 -39.125 21.1375 -39.125 19.4375 C-39.785 19.1075 -40.445 18.7775 -41.125 18.4375 C-32.20333755 8.89016252 -32.20333755 8.89016252 -26.125 6.4375 C-23.03866396 6.42266185 -20.14228201 6.80804434 -17.125 7.4375 C-16.795 6.1175 -16.465 4.7975 -16.125 3.4375 C-9.375 1.4375 -9.375 1.4375 -7.125 1.4375 C-6.5475 1.06625 -5.97 0.695 -5.375 0.3125 C-3.125 -0.5625 -3.125 -0.5625 0 0 Z " fill="#B7CB81" transform="translate(642.125,512.5625)"/>
<path d="M0 0 C1.39412109 0.54333984 1.39412109 0.54333984 2.81640625 1.09765625 C7.37117356 2.78977353 12.0459723 3.98647165 16.75 5.1875 C16.75 5.8475 16.75 6.5075 16.75 7.1875 C17.55252197 7.29328369 18.35504395 7.39906738 19.18188477 7.50805664 C23.5443569 8.33876208 27.63061692 9.66107031 31.83984375 11.05859375 C32.70259415 11.34098404 33.56534454 11.62337433 34.45423889 11.9143219 C37.20001694 12.81380546 39.94382699 13.71911798 42.6875 14.625 C45.4279352 15.52625903 48.16877274 16.4262702 50.91004944 17.32496643 C52.61133018 17.88308713 54.31207597 18.44284206 56.01219177 19.00450134 C59.55894846 20.17121778 63.10097033 21.30411969 66.69897461 22.30297852 C72.04257514 23.85213949 75.25114433 26.92977786 78.30078125 31.5234375 C81.27732531 36.97344776 82.3219486 41.01045517 81.75 47.1875 C70.00657844 52.92872832 56.61108873 53.17681452 43.75 52.1875 C41.07289809 50.84894904 40.79870906 49.46691912 39.625 46.75 C39.27179688 45.94691406 38.91859375 45.14382813 38.5546875 44.31640625 C37.75 42.1875 37.75 42.1875 37.75 40.1875 C36.76 39.8575 35.77 39.5275 34.75 39.1875 C34.75 37.2075 34.75 35.2275 34.75 33.1875 C34.09 33.1875 33.43 33.1875 32.75 33.1875 C32.6675 32.40375 32.585 31.62 32.5 30.8125 C32.2525 29.94625 32.005 29.08 31.75 28.1875 C30.42532254 27.5037955 29.09136367 26.83785814 27.75 26.1875 C27.03752268 24.5398962 26.37599617 22.86986471 25.75 21.1875 C23.00213644 17.20826132 23.00213644 17.20826132 18.75 15.1875 C18.255 13.7025 18.255 13.7025 17.75 12.1875 C14.45777996 9.80978553 11.69420322 8.91406375 7.75 8.1875 C6.76 7.5275 5.77 6.8675 4.75 6.1875 C-2.91418599 5.44611517 -9.30694062 5.71597031 -16.25 9.1875 C-19.5594812 9.99648429 -22.89251247 10.61328181 -26.25 11.1875 C-21.50530709 0.36586051 -10.78357256 -3.99391576 0 0 Z " fill="#87898F" transform="translate(406.25,523.8125)"/>
<path d="M0 0 C0.66 0.33 1.32 0.66 2 1 C1.175 1.763125 0.35 2.52625 -0.5 3.3125 C-3.34055197 5.75434142 -3.34055197 5.75434142 -3 9 C1.70973649 10.76615118 6.03083364 11.48594831 11 12 C11 12.66 11 13.32 11 14 C11.5775 14.1340625 12.155 14.268125 12.75 14.40625 C15.59248652 15.15635061 18.26475465 16.21279479 21 17.28125 C22.9868364 17.99526933 24.95137491 18.49326213 27 19 C29.84065956 19.78729491 32.66981773 20.61343165 35.5 21.4375 C36.25925781 21.65470703 37.01851563 21.87191406 37.80078125 22.09570312 C41.3999686 23.14520346 44.67288573 24.24888723 48 26 C49.96760723 26.48383784 51.9354443 26.96685983 53.90625 27.4375 C57.62471121 28.43648958 61.68270202 29.57990709 64.3515625 32.45703125 C66.55554673 34.52000227 68.72648956 35.22135765 71.5625 36.25 C72.7071875 36.6728125 73.851875 37.095625 75.03125 37.53125 C75.6603125 37.76199219 76.289375 37.99273437 76.9375 38.23046875 C81.61974599 39.97744311 86.2591548 41.83931378 90.90649414 43.67675781 C92.00658813 44.10746582 92.00658813 44.10746582 93.12890625 44.546875 C93.77931885 44.80307617 94.42973145 45.05927734 95.09985352 45.32324219 C105.89842159 49.16926952 119.68459784 47.9247769 130.43359375 44.66796875 C134.36202441 43.6455005 137.96331401 43.7981657 142 44 C142 43.34 142 42.68 142 42 C146.22416334 40.45177724 150.09619321 39.65845471 154.5625 39.1875 C159.5480568 38.5356228 163.69532042 37.47796261 168.3125 35.5 C174.21887379 33.02336649 179.59839522 32.30566832 185.90014648 31.73828125 C191.00010571 31.23806956 195.04004471 30.07767167 199.66015625 27.9453125 C203.1622269 26.53045257 206.73343162 26.03120192 210.45703125 25.4921875 C213.16419714 24.96821991 215.46705577 24.07660562 218 23 C221.95564258 21.73419437 225.7771131 20.85185439 229.875 20.1875 C235.66700884 19.18887779 241.18024616 17.52904351 246.79248047 15.8215332 C251.42772051 14.4236943 256.0150854 13.3167626 260.78515625 12.46875 C263.98900627 11.7906865 267.01887761 10.71177264 270.08984375 9.5859375 C272 9 272 9 275 9 C275 7.35 275 5.7 275 4 C277 7 277 7 277.125 9.5 C276 12 276 12 272.6875 13.625 C268.33180251 15.00739335 263.8909098 16.08830645 259.44897461 17.15551758 C256.09539399 17.97664275 252.76061744 18.84815641 249.42578125 19.7421875 C248.7878363 19.91293289 248.14989136 20.08367828 247.49261475 20.25959778 C245.3282215 20.83903116 243.16410972 21.41950864 241 22 C194.44023281 34.47563222 194.44023281 34.47563222 173.94067383 39.69042969 C172.53726481 40.04749724 171.13386314 40.40459371 169.73046875 40.76171875 C169.03433975 40.9387735 168.33821075 41.11582825 167.62098694 41.29824829 C162.87868344 42.5086684 158.1458364 43.75198792 153.4163208 45.01141357 C149.93725277 45.93669158 146.45564165 46.85219038 142.97381592 47.76702881 C141.32111503 48.20391773 139.669555 48.64515276 138.01934814 49.09136963 C132.70611675 50.52687522 127.38225112 51.84820733 122 53 C120.89353119 53.23866287 120.89353119 53.23866287 119.76470947 53.48214722 C106.67140566 56.11868219 96.87772348 53.68066667 84.5 49.1875 C82.65939341 48.54985775 80.81755882 47.9157509 78.97460938 47.28491211 C75.04802695 45.93513372 71.12928628 44.5652417 67.21484375 43.18066406 C60.74709065 40.89987865 54.25141795 38.70608596 47.75 36.5234375 C29.07920872 30.24327925 10.44776006 23.91250012 -8 17 C-8.14160627 8.15100715 -8.14160627 8.15100715 -5.6875 5.125 C-5.25824219 4.57070313 -4.82898438 4.01640625 -4.38671875 3.4453125 C-3 2 -3 2 0 0 Z " fill="#565E77" transform="translate(383,341)"/>
<path d="M0 0 C2.9375 2.125 2.9375 2.125 5 5 C5.3125 8.3125 5.3125 8.3125 5 11 C5.66 11 6.32 11 7 11 C7.02940464 14.95831733 7.04693328 18.91660597 7.0625 22.875 C7.07087891 23.98359375 7.07925781 25.0921875 7.08789062 26.234375 C7.1053995 32.18739314 6.92661608 38.0021316 6.2043457 43.91381836 C5.9282167 46.26284695 5.9282167 46.26284695 6.125 49.6875 C5.97220912 53.73645825 4.77840255 56.37732815 3 60 C2.62875 61.051875 2.2575 62.10375 1.875 63.1875 C-0.83064936 67.24597405 -4.4436575 68.5302121 -9 70 C-9.66 70 -10.32 70 -11 70 C-11 68.68 -11 67.36 -11 66 C-11.804375 65.855625 -12.60875 65.71125 -13.4375 65.5625 C-16 65 -16 65 -17 64 C-19.11516249 55.38205619 -19.28586838 46.71866855 -19.20581055 37.9050293 C-19.18718991 35.77706289 -19.18530403 33.64952493 -19.18554688 31.52148438 C-19.14799974 21.14799974 -19.14799974 21.14799974 -18 20 C-18.33 19.01 -18.66 18.02 -19 17 C-18.4740625 15.7625 -18.4740625 15.7625 -17.9375 14.5 C-17.4734375 13.2625 -17.4734375 13.2625 -17 12 C-17.66 11.01 -18.32 10.02 -19 9 C-17.56771184 7.68181446 -16.12897516 6.37063296 -14.6875 5.0625 C-13.88699219 4.33160156 -13.08648438 3.60070312 -12.26171875 2.84765625 C-8.38247995 -0.32139375 -4.88199907 -0.50503439 0 0 Z " fill="#B2FCFE" transform="translate(544,412)"/>
<path d="M0 0 C2.97 1.32 5.94 2.64 9 4 C9 4.99 9 5.98 9 7 C9.99 7.33 10.98 7.66 12 8 C12.04898438 8.59167969 12.09796875 9.18335938 12.1484375 9.79296875 C12.59503332 14.84761752 12.59503332 14.84761752 14.1875 19.625 C15.17935192 22.52425947 14.47866513 23.90804163 13.51171875 26.72265625 C12.56404248 30.94017735 12.9289881 35.25755967 12.98828125 39.55859375 C13.02264283 49.64944457 11.54524803 58.84052926 4.6875 66.625 C1.90892248 69.08048711 -0.56239964 70.62495986 -4 72 C-4.66 71.67 -5.32 71.34 -6 71 C-6 69.68 -6 68.36 -6 67 C-7.32 66.67 -8.64 66.34 -10 66 C-12.05055248 57.94301334 -12.27126023 50.22094578 -12.1875 41.9375 C-12.18685547 40.72255859 -12.18621094 39.50761719 -12.18554688 38.25585938 C-12.15381405 31.75063043 -11.80728351 25.4517577 -11 19 C-11.020625 17.72125 -11.04125 16.4425 -11.0625 15.125 C-10.38409467 8.91884751 -4.24025191 4.18638301 0 0 Z " fill="#B0FCFE" transform="translate(585,395)"/>
<path d="M0 0 C0.99 0.66 1.98 1.32 3 2 C3.1875 5.125 3.1875 5.125 3 8 C-5.46333239 10.9989119 -13.751321 13.49870608 -22.578125 15.24609375 C-26.09083352 16.02001241 -29.45156976 17.02461171 -32.875 18.125 C-36.38115411 19.2512192 -39.64510816 20.21220331 -43.3125 20.5625 C-46.95393817 20.99453504 -49.70677287 21.89520915 -53.07421875 23.2421875 C-58.32329447 25.30774671 -63.7418243 26.38799316 -69.27734375 27.33984375 C-71.61006753 27.90545396 -73.60588216 28.62007339 -75.8203125 29.515625 C-79.81627107 31.05757177 -83.68728965 31.51753591 -87.9375 31.8125 C-95.02965341 32.45731236 -101.04419326 34.24252939 -107.65576172 36.81420898 C-114.95676176 39.55910583 -122.26319718 40.39605039 -130 41 C-130 41.66 -130 42.32 -130 43 C-130.56509277 43.08564209 -131.13018555 43.17128418 -131.71240234 43.25952148 C-134.26714633 43.64869818 -136.82106747 44.04303485 -139.375 44.4375 C-140.26445313 44.57220703 -141.15390625 44.70691406 -142.0703125 44.84570312 C-142.92109375 44.97783203 -143.771875 45.10996094 -144.6484375 45.24609375 C-145.43395996 45.36654053 -146.21948242 45.4869873 -147.02880859 45.61108398 C-149.06611684 45.92238238 -149.06611684 45.92238238 -151 47 C-165.77209023 48.31307469 -177.41374182 45.67753696 -191 40 C-192.01191406 39.59523438 -193.02382813 39.19046875 -194.06640625 38.7734375 C-195.02353516 38.39058594 -195.02353516 38.39058594 -196 38 C-196 37.67 -196 37.34 -196 37 C-188.92154265 37.45667467 -183.4832129 39.22148019 -177 42 C-175.00736409 42.68836513 -173.00958663 43.36281399 -171 44 C-169.515 44.495 -169.515 44.495 -168 45 C-167.360625 44.835 -166.72125 44.67 -166.0625 44.5 C-163.68227266 43.92297519 -162.30293321 44.25977147 -160 45 C-160 44.34 -160 43.68 -160 43 C-152.125 42 -152.125 42 -151 42 C-147.95043967 41.41430027 -144.91406193 40.76266031 -141.875 40.125 C-141.03195312 39.95097656 -140.18890625 39.77695312 -139.3203125 39.59765625 C-133.06399596 38.28616132 -126.92916109 36.8781676 -121 34.4375 C-117.36444031 33.03541399 -113.87891431 32.44756704 -110 32 C-109.319375 31.814375 -108.63875 31.62875 -107.9375 31.4375 C-105.2772859 30.83680649 -102.71615848 30.93826913 -100 31 C-99.67 30.34 -99.34 29.68 -99 29 C-96.375 28 -96.375 28 -93 27 C-91.96875 26.67 -90.9375 26.34 -89.875 26 C-86.67750213 25.08945425 -83.47141102 24.57127495 -80.1875 24.0625 C-72.84573721 22.89407409 -65.83087508 20.96004587 -59 18 C-58.67 18.33 -58.34 18.66 -58 19 C-57.67 18.34 -57.34 17.68 -57 17 C-56.401875 17.226875 -55.80375 17.45375 -55.1875 17.6875 C-54.465625 17.790625 -53.74375 17.89375 -53 18 C-52.57847656 17.53335937 -52.15695312 17.06671875 -51.72265625 16.5859375 C-49.35181935 14.40326226 -47.41781995 14.35156784 -44.25 13.9375 C-39.68262652 13.27245524 -35.41342025 12.38460243 -31 11 C-17.25 7 -17.25 7 -13 7 C-13 6.34 -13 5.68 -13 5 C-12.443125 5.20625 -11.88625 5.4125 -11.3125 5.625 C-8.32761639 6.10903518 -6.73455148 5.19198398 -4 4 C-3.01 4 -2.02 4 -1 4 C-0.67 2.68 -0.34 1.36 0 0 Z " fill="#5E6E98" transform="translate(655,342)"/>
<path d="M0 0 C2.18728546 1.22471602 4.12020278 2.61583884 6.0859375 4.16796875 C5.7559375 5.15796875 5.4259375 6.14796875 5.0859375 7.16796875 C5.0859375 6.50796875 5.0859375 5.84796875 5.0859375 5.16796875 C0.93740871 7.09751702 -2.37119041 9.29536976 -5.9140625 12.16796875 C-9.98734403 13.52572926 -14.04016652 14.00069224 -18.2890625 14.54296875 C-19.56523437 14.74212891 -19.56523437 14.74212891 -20.8671875 14.9453125 C-23.31114955 15.24604926 -25.46519103 15.43932113 -27.9140625 15.16796875 C-30.953125 12.76953125 -30.953125 12.76953125 -32.9140625 10.16796875 C-35.03331854 8.04871271 -39.5336718 8.74965858 -42.4765625 8.60546875 C-43.28287109 8.56228516 -44.08917969 8.51910156 -44.91992188 8.47460938 C-46.91775055 8.36821613 -48.9158832 8.26755987 -50.9140625 8.16796875 C-50.9140625 7.50796875 -50.9140625 6.84796875 -50.9140625 6.16796875 C-44.35857337 3.84764098 -37.98057168 1.87335188 -31.12890625 0.671875 C-28.66215781 0.20292297 -28.66215781 0.20292297 -25.6640625 -1.45703125 C-17.15246994 -4.57794852 -8.18493394 -3.64550812 0 0 Z " fill="#272E3D" transform="translate(418.9140625,531.83203125)"/>
<path d="M0 0 C2 3 2 3 2.125 5.5 C1 8 1 8 -2.3125 9.625 C-6.6697233 11.00787761 -11.11221109 12.0890048 -15.55566406 13.15673828 C-18.88289688 13.97133015 -22.19142635 14.83550908 -25.5 15.72265625 C-26.13402237 15.89236938 -26.76804474 16.06208252 -27.42127991 16.23693848 C-28.83693432 16.61591757 -30.25250302 16.99521694 -31.66799927 17.37478638 C-38.9371441 19.32365728 -46.20801279 21.26610097 -53.47875977 23.20898438 C-55.44958237 23.73588142 -57.4202858 24.26322444 -59.39086914 24.79101562 C-65.92380152 26.54051093 -72.45973026 28.27813286 -79 30 C-79.79078949 30.20897919 -80.58157898 30.41795837 -81.39633179 30.63327026 C-88.88566361 32.60275412 -96.20469815 34.40099188 -103.9375 35.0625 C-109.2788346 35.58204961 -114.12483754 36.40189557 -119.14453125 38.34375 C-122.0140797 39.35866398 -124.99452521 39.58748385 -128 40 C-128.60972656 40.31839844 -129.21945312 40.63679688 -129.84765625 40.96484375 C-132.44457007 42.21381319 -134.77653769 42.57911903 -137.625 43 C-141.33259427 43.56081258 -144.92678229 44.21766799 -148.5625 45.125 C-156.52102203 46.80323858 -164.91254975 46.14946007 -173 46 C-173.33 45.34 -173.66 44.68 -174 44 C-172.69546875 43.96261719 -171.3909375 43.92523438 -170.046875 43.88671875 C-161.24361225 43.57565833 -153.06919904 43.12438478 -144.56640625 40.6328125 C-140.63903785 39.66442029 -137.02458011 39.79877099 -133 40 C-133 39.34 -133 38.68 -133 38 C-128.77583666 36.45177724 -124.90380679 35.65845471 -120.4375 35.1875 C-115.4519432 34.5356228 -111.30467958 33.47796261 -106.6875 31.5 C-100.78112621 29.02336649 -95.40160478 28.30566832 -89.09985352 27.73828125 C-83.99989429 27.23806956 -79.95995529 26.07767167 -75.33984375 23.9453125 C-71.8377731 22.53045257 -68.26656838 22.03120192 -64.54296875 21.4921875 C-61.83580286 20.96821991 -59.53294423 20.07660562 -57 19 C-53.04435742 17.73419437 -49.2228869 16.85185439 -45.125 16.1875 C-39.33299116 15.18887779 -33.81975384 13.52904351 -28.20751953 11.8215332 C-23.57227949 10.4236943 -18.9849146 9.3167626 -14.21484375 8.46875 C-11.01099373 7.7906865 -7.98112239 6.71177264 -4.91015625 5.5859375 C-3 5 -3 5 0 5 C0 3.35 0 1.7 0 0 Z " fill="#496198" transform="translate(658,345)"/>
<path d="M0 0 C2.875 1.4375 2.875 1.4375 4.25 4.0625 C4.45625 4.84625 4.6625 5.63 4.875 6.4375 C6.195 6.4375 7.515 6.4375 8.875 6.4375 C9.535 10.3975 10.195 14.3575 10.875 18.4375 C11.535 18.4375 12.195 18.4375 12.875 18.4375 C12.545 21.0775 12.215 23.7175 11.875 26.4375 C12.535 26.7675 13.195 27.0975 13.875 27.4375 C13.02197465 31.98798695 10.34774293 34.37317204 7.125 37.5 C6.5990625 38.02916016 6.073125 38.55832031 5.53125 39.10351562 C-1.90395624 46.4375 -1.90395624 46.4375 -7.125 46.4375 C-7.785 45.4475 -8.445 44.4575 -9.125 43.4375 C-11.105 44.0975 -13.085 44.7575 -15.125 45.4375 C-15.125 44.1175 -15.125 42.7975 -15.125 41.4375 C-14.135 40.9425 -14.135 40.9425 -13.125 40.4375 C-12.86460937 39.7671875 -12.60421875 39.096875 -12.3359375 38.40625 C-11.73652344 37.43171875 -11.73652344 37.43171875 -11.125 36.4375 C-8.6640625 35.96875 -8.6640625 35.96875 -5.75 35.9375 C-1.46090452 35.70829774 -1.46090452 35.70829774 2.375 33.9375 C6.08016296 27.7622284 7.59060903 21.5935903 6.875 14.4375 C5.23812815 10.85197119 4.18527417 9.64434945 0.875 7.4375 C-3.63718575 7.521059 -5.56235552 7.92486836 -8.9375 11 C-10.0203125 12.2065625 -10.0203125 12.2065625 -11.125 13.4375 C-11.785 13.4375 -12.445 13.4375 -13.125 13.4375 C-13.125 12.7775 -13.125 12.1175 -13.125 11.4375 C-25.34613785 11.14521264 -25.34613785 11.14521264 -35.546875 17.0625 C-37.37003126 18.65099258 -38.76859012 19.02768959 -41.125 19.4375 C-36.91604874 14.04140864 -32.532302 9.1804953 -26.125 6.4375 C-22.96608287 6.25562295 -20.17968424 6.64313767 -17.125 7.4375 C-16.795 6.1175 -16.465 4.7975 -16.125 3.4375 C-9.375 1.4375 -9.375 1.4375 -7.125 1.4375 C-6.5475 1.06625 -5.97 0.695 -5.375 0.3125 C-3.125 -0.5625 -3.125 -0.5625 0 0 Z " fill="#7FBAD6" transform="translate(642.125,512.5625)"/>
<path d="M0 0 C2.97 1.32 5.94 2.64 9 4 C9 4.99 9 5.98 9 7 C9.99 7.33 10.98 7.66 12 8 C12.04898438 8.59167969 12.09796875 9.18335938 12.1484375 9.79296875 C12.59503332 14.84761752 12.59503332 14.84761752 14.1875 19.625 C15.17935192 22.52425947 14.47866513 23.90804163 13.51171875 26.72265625 C12.56404248 30.94017735 12.9289881 35.25755967 12.98828125 39.55859375 C13.02264283 49.64944457 11.54524803 58.84052926 4.6875 66.625 C1.90892248 69.08048711 -0.56239964 70.62495986 -4 72 C-4.66 71.67 -5.32 71.34 -6 71 C-6 69.68 -6 68.36 -6 67 C-7.32 66.67 -8.64 66.34 -10 66 C-12.05055248 57.94301334 -12.27126023 50.22094578 -12.1875 41.9375 C-12.18685547 40.72255859 -12.18621094 39.50761719 -12.18554688 38.25585938 C-12.15381405 31.75063043 -11.80728351 25.4517577 -11 19 C-11.020625 17.72125 -11.04125 16.4425 -11.0625 15.125 C-10.38409467 8.91884751 -4.24025191 4.18638301 0 0 Z M-6 12 C-10.50796493 21.46672636 -9.15696237 33.77343093 -9.13037109 44.02539062 C-9.12495183 46.52219547 -9.13037426 49.0188252 -9.13671875 51.515625 C-9.13605896 53.10416706 -9.13477985 54.69270902 -9.1328125 56.28125 C-9.13483673 57.02701294 -9.13686096 57.77277588 -9.13894653 58.5411377 C-9.19178727 62.39776072 -9.19178727 62.39776072 -8 66 C-3.03317768 66.29216602 0.10349334 66.24708889 4 63 C6.63125546 58.5642676 7.67997639 54.44614317 8.1875 49.375 C8.26645508 48.62661865 8.34541016 47.8782373 8.42675781 47.10717773 C9.12927537 39.43802775 9.21307587 31.75945789 9.25 24.0625 C9.25926514 22.8235498 9.26853027 21.58459961 9.27807617 20.30810547 C9.27396729 19.14553223 9.2698584 17.98295898 9.265625 16.78515625 C9.26336914 15.74238525 9.26111328 14.69961426 9.25878906 13.62524414 C9.18492854 10.76779384 9.18492854 10.76779384 7 8 C1.25992501 7.34130287 -1.95852213 7.48305414 -6 12 Z " fill="#24A8E7" transform="translate(585,395)"/>
<path d="M0 0 C2.9375 2.125 2.9375 2.125 5 5 C5.3125 8.3125 5.3125 8.3125 5 11 C5.66 11 6.32 11 7 11 C7.02940464 14.95831733 7.04693328 18.91660597 7.0625 22.875 C7.07087891 23.98359375 7.07925781 25.0921875 7.08789062 26.234375 C7.1053995 32.18739314 6.92661608 38.0021316 6.2043457 43.91381836 C5.9282167 46.26284695 5.9282167 46.26284695 6.125 49.6875 C5.97220912 53.73645825 4.77840255 56.37732815 3 60 C2.62875 61.051875 2.2575 62.10375 1.875 63.1875 C-0.83064936 67.24597405 -4.4436575 68.5302121 -9 70 C-9.66 70 -10.32 70 -11 70 C-11 68.68 -11 67.36 -11 66 C-11.804375 65.855625 -12.60875 65.71125 -13.4375 65.5625 C-16 65 -16 65 -17 64 C-19.11516249 55.38205619 -19.28586838 46.71866855 -19.20581055 37.9050293 C-19.18718991 35.77706289 -19.18530403 33.64952493 -19.18554688 31.52148438 C-19.14799974 21.14799974 -19.14799974 21.14799974 -18 20 C-18.33 19.01 -18.66 18.02 -19 17 C-18.4740625 15.7625 -18.4740625 15.7625 -17.9375 14.5 C-17.4734375 13.2625 -17.4734375 13.2625 -17 12 C-17.66 11.01 -18.32 10.02 -19 9 C-17.56771184 7.68181446 -16.12897516 6.37063296 -14.6875 5.0625 C-13.88699219 4.33160156 -13.08648438 3.60070312 -12.26171875 2.84765625 C-8.38247995 -0.32139375 -4.88199907 -0.50503439 0 0 Z M-10.72485352 7.17480469 C-16.68438768 15.70505117 -15.43123114 28.42423864 -15.33618164 38.34814453 C-15.31229674 41.02276094 -15.3156777 43.69639561 -15.32226562 46.37109375 C-15.31669653 48.0807351 -15.30959152 49.79037229 -15.30078125 51.5 C-15.30169266 52.2947876 -15.30260406 53.0895752 -15.30354309 53.90844727 C-15.25434608 57.73692612 -15.16709778 60.75609349 -13 64 C-8.84473143 64.33242149 -6.44142764 64.22487823 -2.6875 62.3125 C3.37812064 57.09324503 3.21465651 48.52368079 3.82275391 40.99121094 C4.15356829 35.40837641 4.25708054 29.82302366 4.29754639 24.23165894 C4.30748778 22.87266991 4.32198877 21.51370632 4.34112549 20.15481567 C4.36494169 18.22183264 4.36452227 16.2885981 4.36328125 14.35546875 C4.36626221 13.22778076 4.36924316 12.10009277 4.37231445 10.93823242 C3.95827366 7.6707039 3.34814756 6.28347905 1 4 C-3.75593288 3.19238876 -7.15776712 3.72876658 -10.72485352 7.17480469 Z " fill="#28BAF0" transform="translate(544,412)"/>
<path d="M0 0 C3.63076097 2.94386025 4.35491517 5.84395041 4.9375 10.3125 C5.31497308 16.99017857 3.64093156 21.3405592 0.1875 26.9375 C-2.59816241 29.5639817 -4.18824424 30 -8 30 C-11.45332231 28.63473304 -12.76645144 27.35434953 -14.8125 24.25 C-17.31036127 17.41374811 -15.85384975 11.45743968 -13 5 C-9.33811759 -0.49282361 -6.45673045 -1.84478013 0 0 Z " fill="#FDFEAE" transform="translate(623,528)"/>
<path d="M0 0 C2.86942113 2.26533247 3.83907612 3.51722837 5 7 C5.52438623 14.60360027 4.3455343 20.89375187 -0.3125 27.0625 C-3 29 -3 29 -6 29.625 C-9.96333283 28.79930566 -11.44534526 27.06558569 -14 24 C-16.34763771 19.30472459 -15.74827573 12.44643517 -14.24609375 7.53515625 C-10.95229258 0.5987985 -7.92787256 -2.12353729 0 0 Z " fill="#E9FDFE" transform="translate(645,520)"/>
<path d="M0 0 C0.99 0.66 1.98 1.32 3 2 C3.1875 5.125 3.1875 5.125 3 8 C-5.46333239 10.9989119 -13.751321 13.49870608 -22.578125 15.24609375 C-26.09083352 16.02001241 -29.45156976 17.02461171 -32.875 18.125 C-36.38115411 19.2512192 -39.64510816 20.21220331 -43.3125 20.5625 C-46.95393817 20.99453504 -49.70677287 21.89520915 -53.07421875 23.2421875 C-57.57919192 25.01493556 -62.19431568 26.05403666 -66.9375 26.9375 C-70.90604607 27.69628119 -74.45924278 28.85477559 -78.20703125 30.3359375 C-83.65531047 32.35381869 -89.28200079 32.11435998 -95 32 C-94.67 31.34 -94.34 30.68 -94 30 C-89.17574056 28.52819204 -85.07522852 27.74623857 -80 28 C-80 27.34 -80 26.68 -80 26 C-78.97261719 25.75765625 -77.94523438 25.5153125 -76.88671875 25.265625 C-63.13349695 22.88140429 -63.13349695 22.88140429 -51.56640625 16.4453125 C-49.30576889 14.35943763 -47.26628396 14.33176047 -44.25 13.9375 C-39.68262652 13.27245524 -35.41342025 12.38460243 -31 11 C-17.25 7 -17.25 7 -13 7 C-13 6.34 -13 5.68 -13 5 C-12.443125 5.20625 -11.88625 5.4125 -11.3125 5.625 C-8.32761639 6.10903518 -6.73455148 5.19198398 -4 4 C-3.01 4 -2.02 4 -1 4 C-0.67 2.68 -0.34 1.36 0 0 Z " fill="#606985" transform="translate(655,342)"/>
<path d="M0 0 C0.66 0.33 1.32 0.66 2 1 C1.175 1.763125 0.35 2.52625 -0.5 3.3125 C-3.34055197 5.75434142 -3.34055197 5.75434142 -3 9 C1.70973649 10.76615118 6.03083364 11.48594831 11 12 C11 12.66 11 13.32 11 14 C11.5775 14.1340625 12.155 14.268125 12.75 14.40625 C15.59248652 15.15635061 18.26475465 16.21279479 21 17.28125 C22.9868364 17.99526933 24.95137491 18.49326213 27 19 C29.84065956 19.78729491 32.66981773 20.61343165 35.5 21.4375 C36.25925781 21.65470703 37.01851563 21.87191406 37.80078125 22.09570312 C41.3999686 23.14520346 44.67288573 24.24888723 48 26 C49.96790662 26.48391146 51.93597795 26.96721764 53.90625 27.44140625 C58.97348541 28.79329928 63.22130305 30.2598699 66 35 C65.32710938 34.84273438 64.65421875 34.68546875 63.9609375 34.5234375 C59.27146531 33.6944279 54.54167925 33.66047231 49.7890625 33.4765625 C46.40044414 33.05036514 43.98035967 32.271274 40.91552734 30.82910156 C36.27439504 28.82027091 31.24860906 27.68506266 26.3828125 26.33789062 C21.04288759 24.80002471 16.76745351 22.83454282 12 20 C9.6357558 19.20850408 9.6357558 19.20850408 7.4375 18.875 C3.83216171 18.18213737 0.47247478 17.21132841 -3 16 C-4.32911682 15.65023242 -5.66082739 15.30903983 -7 15 C-7.48970976 7.776781 -7.48970976 7.776781 -5.1875 4.125 C-3 2 -3 2 0 0 Z " fill="#656771" transform="translate(383,341)"/>
<path d="M0 0 C2.03137465 1.88425559 3.38388132 3.69125903 5 6 C4.67 6.99 4.34 7.98 4 9 C2.68 9 1.36 9 0 9 C-1.91113133 10.2510416 -1.91113133 10.2510416 -3.625 11.9375 C-7.75717605 15.75389841 -10.12255445 16.16634874 -15.8125 16.5 C-19.97037801 16.74535423 -23.93613602 17.0711168 -28 18 C-28.83905565 16.87926138 -29.67107831 15.75325453 -30.5 14.625 C-31.19609375 13.68527344 -31.19609375 13.68527344 -31.90625 12.7265625 C-33 11 -33 11 -33 9 C-29.36838968 7.51010859 -26.4975904 6.92365215 -22.625 7.125 C-17.67412387 7.2504445 -14.07211834 5.75466829 -10 3 C-9.49210937 2.48050781 -8.98421875 1.96101562 -8.4609375 1.42578125 C-5.7530151 -1.21697724 -3.31692894 -1.463351 0 0 Z " fill="#212A3C" transform="translate(429,540)"/>
<path d="M0 0 C4.84487187 0.94353085 7.73013254 3.38708841 11 7 C14.97685184 12.95533563 16.66009929 17.87092762 16 25 C4.25657844 30.74122832 -9.13891127 30.98931452 -22 30 C-24.67455183 28.66272409 -24.98881385 27.26711677 -26.1875 24.5625 C-26.73470703 23.35787109 -26.73470703 23.35787109 -27.29296875 22.12890625 C-28 20 -28 20 -27 18 C-26.1646875 19.2065625 -26.1646875 19.2065625 -25.3125 20.4375 C-21.09539664 24.72731204 -14.62411232 23.92573201 -9 24 C-7.00001181 24.00687281 -4.99997953 24.00904968 -3 24 C-3 23.34 -3 22.68 -3 22 C-2.25234375 21.95101562 -1.5046875 21.90203125 -0.734375 21.8515625 C0.25046875 21.77679687 1.2353125 21.70203125 2.25 21.625 C3.71179688 21.52058594 3.71179688 21.52058594 5.203125 21.4140625 C7.89633189 21.01534751 9.66963279 20.36492937 12 19 C11.57405412 17.55903414 11.13373367 16.12231288 10.6875 14.6875 C10.44386719 13.88699219 10.20023437 13.08648438 9.94921875 12.26171875 C8.9458372 9.87094544 7.84690515 8.76768134 6 7 C5.505 5.515 5.505 5.515 5 4 C3.35857037 2.9590934 1.69287785 1.95495674 0 1 C0 0.67 0 0.34 0 0 Z " fill="#515968" transform="translate(472,546)"/>
<path d="M0 0 C0.33 0 0.66 0 1 0 C1 1.98 1 3.96 1 6 C1.88751953 6.07347656 1.88751953 6.07347656 2.79296875 6.1484375 C7.24148577 6.56934123 10.89700163 7.15365073 15 9 C17.10312783 9.69552259 19.21354092 10.36362367 21.328125 11.0234375 C23.68539451 11.88501261 25.89949962 12.86281698 28.17578125 13.9140625 C32.98400581 16.07761475 37.87115007 17.56914645 42.9375 19 C48.98280615 20.75624616 54.85688443 22.58773925 60.6484375 25.07421875 C63.57145739 26.22497575 66.54466709 27.06683786 69.5625 27.9375 C75.19612079 29.61290144 80.0367903 31.87074117 85 35 C81.02244856 36.32585048 79.33332454 35.34537987 75.37890625 34 C74.70285843 33.77274734 74.02681061 33.54549469 73.33027649 33.31135559 C71.07132834 32.54953043 68.81700938 31.77485314 66.5625 31 C64.98153653 30.46368757 63.40031363 29.92813937 61.81884766 29.39331055 C58.39739884 28.23420929 54.97803937 27.06918995 51.56005859 25.89990234 C46.69722583 24.23664145 41.83078409 22.58420192 36.96330261 20.93460083 C31.93301868 19.22973439 26.90384509 17.52160537 21.875 15.8125 C20.89467804 15.47935791 19.91435608 15.14621582 18.90432739 14.80297852 C16.12052947 13.8560341 13.33747603 12.90693732 10.5546875 11.95703125 C9.71674149 11.67213333 8.87879547 11.38723541 8.01545715 11.09370422 C2.23050975 9.11525487 2.23050975 9.11525487 0 8 C0 5.36 0 2.72 0 0 Z " fill="#32374A" transform="translate(375,350)"/>
<path d="M0 0 C2 3 2 3 2.125 5.5 C1 8 1 8 -2.3125 9.625 C-6.67072171 11.00819448 -11.1142997 12.08925692 -15.55859375 13.15795898 C-18.86851124 13.96782742 -22.16112954 14.82340885 -25.453125 15.703125 C-26.08466995 15.87180588 -26.7162149 16.04048676 -27.36689758 16.21427917 C-32.32612321 17.54248286 -37.27888727 18.89388866 -42.23094177 20.24855042 C-46.19849451 21.33226302 -50.16807721 22.40842473 -54.13793945 23.48364258 C-56.19158748 24.04181527 -58.24430901 24.60340674 -60.29614258 25.16821289 C-63.29271211 25.99226359 -66.29239139 26.8039643 -69.29296875 27.61328125 C-70.20958786 27.86837967 -71.12620697 28.12347809 -72.07060242 28.38630676 C-72.92281876 28.61372055 -73.7750351 28.84113434 -74.65307617 29.07543945 C-75.77101814 29.38044121 -75.77101814 29.38044121 -76.9115448 29.69160461 C-79.23305415 30.03441435 -80.78332157 29.7153953 -83 29 C-78.03276441 27.01310577 -73.2798796 25.54527654 -68.04296875 24.47265625 C-65.57891815 23.90257953 -63.33449 22.96126059 -61 22 C-60.01 22 -59.02 22 -58 22 C-57.67 21.01 -57.34 20.02 -57 19 C-53.09213277 17.5557882 -49.22617598 16.86269361 -45.125 16.1875 C-39.33299116 15.18887779 -33.81975384 13.52904351 -28.20751953 11.8215332 C-23.57227949 10.4236943 -18.9849146 9.3167626 -14.21484375 8.46875 C-11.01099373 7.7906865 -7.98112239 6.71177264 -4.91015625 5.5859375 C-3 5 -3 5 0 5 C0 3.35 0 1.7 0 0 Z " fill="#2D4275" transform="translate(658,345)"/>
<path d="M0 0 C2.9375 2.125 2.9375 2.125 5 5 C5.3125 8.3125 5.3125 8.3125 5 11 C5.66 11 6.32 11 7 11 C6.67 13.31 6.34 15.62 6 18 C5.67 18 5.34 18 5 18 C4.79503906 17.14535156 4.59007812 16.29070312 4.37890625 15.41015625 C4.10949219 14.30542969 3.84007812 13.20070313 3.5625 12.0625 C3.29566406 10.96035156 3.02882813 9.85820312 2.75390625 8.72265625 C2.27004275 6.10578746 2.27004275 6.10578746 1 5 C-2.74516241 4.63988823 -5.30241181 4.68291446 -8.75 6.25 C-13.9850652 12.64841302 -14.30859809 21.92166813 -14.7890625 29.91796875 C-15 32 -15 32 -16 33 C-16.15764405 34.77869726 -16.25100677 36.56318476 -16.31640625 38.34765625 C-16.35830078 39.42724609 -16.40019531 40.50683594 -16.44335938 41.61914062 C-16.48267578 42.75544922 -16.52199219 43.89175781 -16.5625 45.0625 C-16.60568359 46.20267578 -16.64886719 47.34285156 -16.69335938 48.51757812 C-16.79982839 51.34492195 -16.90184207 54.17235738 -17 57 C-17.33 57 -17.66 57 -18 57 C-18.99069216 52.87391966 -19.1290379 49.00287844 -19.1328125 44.765625 C-19.13376923 44.08699402 -19.13472595 43.40836304 -19.13571167 42.70916748 C-19.13638898 41.28381253 -19.13456614 39.85845441 -19.13037109 38.43310547 C-19.12498301 36.24309472 -19.13034818 34.05328595 -19.13671875 31.86328125 C-19.13605854 30.47656205 -19.13477857 29.08984297 -19.1328125 27.703125 C-19.13168457 26.44145508 -19.13055664 25.17978516 -19.12939453 23.87988281 C-19 21 -19 21 -18 20 C-18.33 19.01 -18.66 18.02 -19 17 C-18.4740625 15.7625 -18.4740625 15.7625 -17.9375 14.5 C-17.4734375 13.2625 -17.4734375 13.2625 -17 12 C-17.66 11.01 -18.32 10.02 -19 9 C-17.56771184 7.68181446 -16.12897516 6.37063296 -14.6875 5.0625 C-13.88699219 4.33160156 -13.08648438 3.60070312 -12.26171875 2.84765625 C-8.38247995 -0.32139375 -4.88199907 -0.50503439 0 0 Z " fill="#1FA9E9" transform="translate(544,412)"/>
<path d="M0 0 C8.23721153 0.33759064 15.12407527 1.65676933 21 7.8125 C23.37689989 11.6006842 23.66329728 13.6056555 23 18 C21.8125 19.9375 21.8125 19.9375 20 21 C17.3125 21.1875 17.3125 21.1875 15 21 C14.78085937 20.43152344 14.56171875 19.86304688 14.3359375 19.27734375 C11.46860301 12.29550083 8.28561557 6.88618672 1.625 3.0625 C0.75875 2.711875 -0.1075 2.36125 -1 2 C-0.67 1.34 -0.34 0.68 0 0 Z " fill="#7B8C9D" transform="translate(635,487)"/>
<path d="M0 0 C1.39412109 0.54333984 1.39412109 0.54333984 2.81640625 1.09765625 C7.37117356 2.78977353 12.0459723 3.98647165 16.75 5.1875 C13.66700575 6.100419 11.00047092 6.27083887 7.79296875 6.1796875 C6.84486328 6.16292969 5.89675781 6.14617188 4.91992188 6.12890625 C2.94316323 6.08489198 0.96656492 6.03290224 -1.00976562 5.97265625 C-7.01716423 5.8831757 -10.88640469 6.51237348 -16.25 9.1875 C-19.12109375 9.91796875 -19.12109375 9.91796875 -21.6875 10.375 C-22.55246094 10.53355469 -23.41742188 10.69210937 -24.30859375 10.85546875 C-24.94925781 10.96503906 -25.58992188 11.07460938 -26.25 11.1875 C-21.50530709 0.36586051 -10.78357256 -3.99391576 0 0 Z " fill="#8B8C8F" transform="translate(406.25,523.8125)"/>
<path d="M0 0 C-2.6253202 1.38767676 -5.11468074 2.41615173 -7.97973633 3.18920898 C-8.75186966 3.39960312 -9.52400299 3.60999725 -10.3195343 3.82676697 C-11.14865829 4.04764481 -11.97778229 4.26852264 -12.83203125 4.49609375 C-13.7008342 4.73030533 -14.56963715 4.96451691 -15.46476746 5.20582581 C-17.30756089 5.70129147 -19.15094645 6.19455933 -20.99487305 6.68579102 C-23.76601234 7.42509765 -26.53444688 8.17392381 -29.30273438 8.92382812 C-39.46914623 11.65932457 -49.60653078 14.26737483 -60 16 C-61.01779541 16.18353027 -62.03559082 16.36706055 -63.08422852 16.55615234 C-71.58276511 17.72850918 -78.30798795 15.49009293 -86.25 12.5625 C-87.48363281 12.12873047 -88.71726562 11.69496094 -89.98828125 11.24804688 C-93.00014381 10.18572326 -96.00284322 9.10298695 -99 8 C-94.72358436 6.66055469 -91.81332529 7.86062044 -87.75 9.375 C-74.35902905 14.06527096 -61.01044834 13.6011941 -47 12 C-47 11.34 -47 10.68 -47 10 C-41.94614065 8.71356308 -36.89157239 7.52466597 -31.78515625 6.46484375 C-29.98930215 6.15800339 -29.98930215 6.15800339 -29 5 C-27.44512357 4.6515437 -25.88050305 4.34609995 -24.3125 4.0625 C-21.36372394 3.50122728 -18.66695874 2.88898625 -15.8125 1.9375 C-10.60318915 0.20106305 -5.46029786 -0.133178 0 0 Z " fill="#224483" transform="translate(559,379)"/>
<path d="M0 0 C7.425 0.99 7.425 0.99 15 2 C15 2.66 15 3.32 15 4 C15.57105469 4.15855469 16.14210938 4.31710937 16.73046875 4.48046875 C24.91312927 6.83509761 32.81939365 9.84770727 40.6796875 13.11328125 C43.42427969 14.16214055 46.09691461 14.59491832 49 15 C49 15.66 49 16.32 49 17 C49.928125 17.103125 50.85625 17.20625 51.8125 17.3125 C55.03254358 18.0070192 56.02579865 18.47740939 58 21 C54.08612778 21.35580657 51.61631709 20.41649953 48.08032227 18.84448242 C43.33459941 16.9180119 38.31314201 15.70292962 33.3828125 14.33789062 C28.04288759 12.80002471 23.76745351 10.83454282 19 8 C16.6357558 7.20850408 16.6357558 7.20850408 14.4375 6.875 C10.83216171 6.18213737 7.47247478 5.21132841 4 4 C2.67088318 3.65023242 1.33917261 3.30903983 0 3 C0 2.01 0 1.02 0 0 Z " fill="#52555F" transform="translate(376,353)"/>
<path d="M0 0 C1.98 0 3.96 0 6 0 C6 0.66 6 1.32 6 2 C6.99 1.67 7.98 1.34 9 1 C8.76023437 2.051875 8.76023437 2.051875 8.515625 3.125 C7.97693233 6.12861973 7.79668676 8.94979849 7.75 12 C7.72421875 13.010625 7.6984375 14.02125 7.671875 15.0625 C8.19758695 19.76887368 10.55049726 22.87902133 14 26 C12.02 26 10.04 26 8 26 C7.34 27.32 6.68 28.64 6 30 C5.34 30 4.68 30 4 30 C3.67 30.99 3.34 31.98 3 33 C-0.465 33.495 -0.465 33.495 -4 34 C-3.38511719 33.36384766 -3.38511719 33.36384766 -2.7578125 32.71484375 C1.6260958 27.94288615 4.06520572 24.06053832 3.95703125 17.32421875 C3.59493781 12.2754064 2.89172085 7.72930211 1 3 C0.67 2.01 0.34 1.02 0 0 Z " fill="#CDE2D9" transform="translate(623,524)"/>
<path d="M0 0 C0.99 0.33 1.98 0.66 3 1 C-1.80049995 6.85426823 -11.65776297 8.0345263 -18.8125 8.75 C-20.20740997 8.84757717 -21.60310419 8.93693473 -23 9 C-23 9.66 -23 10.32 -23 11 C-24.39412109 11.29003906 -24.39412109 11.29003906 -25.81640625 11.5859375 C-31.9469208 12.87724505 -37.98740863 14.23159077 -44 16 C-53.1419961 18.31341961 -53.1419961 18.31341961 -58 18 C-56 15 -56 15 -53.72265625 14.48828125 C-52.40587891 14.40126953 -52.40587891 14.40126953 -51.0625 14.3125 C-49.74958984 14.21388672 -49.74958984 14.21388672 -48.41015625 14.11328125 C-46.60836467 14.02859413 -44.8037807 14 -43 14 C-42.67 13.34 -42.34 12.68 -42 12 C-39.375 11 -39.375 11 -36 10 C-34.96875 9.67 -33.9375 9.34 -32.875 9 C-29.67750213 8.08945425 -26.47141102 7.57127495 -23.1875 7.0625 C-15.84573721 5.89407409 -8.83087508 3.96004587 -2 1 C-1.505 1.495 -1.505 1.495 -1 2 C-0.67 1.34 -0.34 0.68 0 0 Z " fill="#6B789C" transform="translate(598,359)"/>
<path d="M0 0 C0.66 0.33 1.32 0.66 2 1 C1.8570752 1.78004395 1.71415039 2.56008789 1.56689453 3.36376953 C-0.17178159 13.91882433 -0.23186487 24.2066596 -0.125 34.875 C-0.11494039 36.64192196 -0.10581986 38.40884952 -0.09765625 40.17578125 C-0.07590126 44.45066254 -0.04153949 48.72526707 0 53 C-0.66 53 -1.32 53 -2 53 C-4.05055248 44.94301334 -4.27126023 37.22094578 -4.1875 28.9375 C-4.18685547 27.72255859 -4.18621094 26.50761719 -4.18554688 25.25585938 C-4.08226103 4.08226103 -4.08226103 4.08226103 0 0 Z " fill="#34C7F4" transform="translate(577,408)"/>
<path d="M0 0 C-1.04481337 6.70880162 -2.69800644 12.0564116 -6 18 C-6.66 18 -7.32 18 -8 18 C-8.67184618 15.89748139 -9.33730968 13.79292237 -10 11.6875 C-10.556875 9.92986328 -10.556875 9.92986328 -11.125 8.13671875 C-12 5 -12 5 -12 2 C-7.84055256 0.69507531 -4.34963091 -0.12019705 0 0 Z " fill="#7A7E8C" transform="translate(522,311)"/>
<path d="M0 0 C0.66 0.33 1.32 0.66 2 1 C1.67 2.65 1.34 4.3 1 6 C-7.99479804 8.82231986 -16.69950528 11.30932199 -26.07421875 12.53515625 C-29.73317295 13.11648542 -33.11675072 14.19465843 -36.6328125 15.3359375 C-40.39362569 16.3909511 -44.11299402 16.68653178 -48 17 C-44.94218186 13.54613915 -42.56106763 13.53212456 -38 13 C-35.65593068 12.37212429 -33.32206525 11.70491267 -31 11 C-17.25 7 -17.25 7 -13 7 C-13 6.34 -13 5.68 -13 5 C-12.443125 5.20625 -11.88625 5.4125 -11.3125 5.625 C-8.32761639 6.10903518 -6.73455148 5.19198398 -4 4 C-3.01 4 -2.02 4 -1 4 C-0.67 2.68 -0.34 1.36 0 0 Z " fill="#71778D" transform="translate(655,342)"/>
<path d="M0 0 C5.85898419 0.64218907 11.20220818 2.16381411 16.8125 3.9375 C22.80345433 5.8301074 28.6751951 7.43164787 34.87768555 8.47485352 C37 9 37 9 40 11 C42.33163378 11.67258667 44.6652039 12.33847444 47 13 C51.44669371 14.79427992 55.73308502 16.81450696 60 19 C55.99510472 20.33496509 53.39429511 19.04936733 49.5703125 17.71875 C48.83128693 17.46957825 48.09226135 17.22040649 47.33084106 16.96368408 C44.92598076 16.15077444 42.52557476 15.32546958 40.125 14.5 C38.48565089 13.94345348 36.84600164 13.38779024 35.20605469 12.83300781 C31.96243207 11.73463441 28.7203317 10.63194799 25.47949219 9.52539062 C19.74644913 7.56977886 13.99932203 5.65713255 8.25 3.75 C6.6092829 3.20340138 4.96864607 2.65656168 3.328125 2.109375 C2.22984375 1.74328125 1.1315625 1.3771875 0 1 C0 0.67 0 0.34 0 0 Z " fill="#202B4B" transform="translate(400,366)"/>
<path d="M0 0 C-6.56538187 2.53400704 -13.00360064 4.64599508 -19.9375 5.9375 C-23.90604607 6.69628119 -27.45924278 7.85477559 -31.20703125 9.3359375 C-36.65531047 11.35381869 -42.28200079 11.11435998 -48 11 C-47.67 10.34 -47.34 9.68 -47 9 C-42.17574056 7.52819204 -38.07522852 6.74623857 -33 7 C-33 6.34 -33 5.68 -33 5 C-6.25900278 -2.07143187 -6.25900278 -2.07143187 0 0 Z " fill="#546797" transform="translate(608,363)"/>
<path d="M0 0 C-7.02448916 2.77319512 -13.94247769 4.79217742 -21.34765625 6.2890625 C-24.13171548 6.79843173 -24.13171548 6.79843173 -26 9 C-34.06598382 12.12183448 -42.43965866 12.63759139 -51 13 C-48.39027227 10.39027227 -46.17902082 10.03926731 -42.625 9.0625 C-41.366875 8.71445312 -40.10875 8.36640625 -38.8125 8.0078125 C-35.42458874 7.1122376 -32.03055275 6.26282528 -28.625 5.4375 C-25.28314501 4.62521292 -22.12338914 3.72994995 -18.9375 2.4375 C-13.1043235 0.12624139 -6.12732153 -2.00426405 0 0 Z " fill="#325393" transform="translate(600,367)"/>
<path d="M0 0 C6.53143133 0.62802224 6.53143133 0.62802224 8.78125 2.4140625 C11.77727667 4.5555886 14.68650592 5.17162648 18.25 6.0625 C19.51328125 6.38347656 20.7765625 6.70445312 22.078125 7.03515625 C22.72974609 7.19145508 23.38136719 7.34775391 24.05273438 7.50878906 C25.9220603 7.98033918 27.76713181 8.54505689 29.609375 9.11328125 C35.62522911 10.61724478 41.84463281 10.20949818 48 10.125 C49.25167969 10.11597656 50.50335938 10.10695313 51.79296875 10.09765625 C54.8621801 10.07422716 57.93098756 10.04142147 61 10 C50.80217388 15.38340177 36.80534779 13.89535562 26 11 C25.36126953 10.83338867 24.72253906 10.66677734 24.06445312 10.49511719 C15.51995253 8.24021024 7.42673342 5.97231439 0 1 C0 0.67 0 0.34 0 0 Z " fill="#3A4B77" transform="translate(451,380)"/>
<path d="M0 0 C0.66 1.32 1.32 2.64 2 4 C2.66 4 3.32 4 4 4 C3.67 6.64 3.34 9.28 3 12 C3.66 12.33 4.32 12.66 5 13 C4.42308522 16.16854747 3.58353113 17.78226459 1.27734375 20.015625 C0.73916016 20.54414062 0.20097656 21.07265625 -0.35351562 21.6171875 C-0.91748047 22.15601563 -1.48144531 22.69484375 -2.0625 23.25 C-2.63033203 23.80429687 -3.19816406 24.35859375 -3.78320312 24.9296875 C-5.18212469 26.29334214 -6.59019114 27.64760417 -8 29 C-8.99 28.67 -9.98 28.34 -11 28 C-10.60167969 27.55269531 -10.20335937 27.10539063 -9.79296875 26.64453125 C-9.26316406 26.03996094 -8.73335937 25.43539062 -8.1875 24.8125 C-7.66542969 24.22082031 -7.14335938 23.62914062 -6.60546875 23.01953125 C-2.58428723 17.96125669 -1.426438 13.99022134 -0.8125 7.6875 C-0.73064453 6.94693359 -0.64878906 6.20636719 -0.56445312 5.44335938 C-0.36557412 3.63005077 -0.18130173 1.81515031 0 0 Z " fill="#77B3D1" transform="translate(651,527)"/>
<path d="M0 0 C0.99 0.33 1.98 0.66 3 1 C1.60135422 4.49661445 0.3985719 5.50063004 -3 7 C-3.928125 7.7115625 -3.928125 7.7115625 -4.875 8.4375 C-8.08062286 10.79457563 -11.16990509 13 -15.25 13 C-17.78950403 11.54885484 -18.16393649 9.71720642 -19 7 C-16.7440731 5.87203655 -15.19174245 5.80177006 -12.6875 5.625 C-8.74998946 5.22682478 -6.23889243 4.38153855 -3 2 C-2.01 1.34 -1.02 0.68 0 0 Z " fill="#A8BF85" transform="translate(631,555)"/>
<path d="M0 0 C2.9375 2.125 2.9375 2.125 5 5 C5.3125 8.3125 5.3125 8.3125 5 11 C5.66 11 6.32 11 7 11 C6.67 13.31 6.34 15.62 6 18 C5.67 18 5.34 18 5 18 C4.79503906 17.14535156 4.59007812 16.29070312 4.37890625 15.41015625 C4.10949219 14.30542969 3.84007812 13.20070313 3.5625 12.0625 C3.29566406 10.96035156 3.02882813 9.85820312 2.75390625 8.72265625 C2.27004275 6.10578746 2.27004275 6.10578746 1 5 C-4.63662193 4.53028151 -9.9313469 5.35690407 -15 8 C-15.33 8.99 -15.66 9.98 -16 11 C-16.99 10.67 -17.98 10.34 -19 10 C-13.83342491 3.31276628 -9.07966007 -1.32067783 0 0 Z " fill="#1CA7E8" transform="translate(544,412)"/>
<path d="M0 0 C3.48238662 1.74119331 3.66397752 2.87940063 4.875 6.4375 C3.85019531 6.40269531 2.82539062 6.36789062 1.76953125 6.33203125 C0.40887064 6.30387965 -0.9518078 6.27658096 -2.3125 6.25 C-3.32280273 6.21229492 -3.32280273 6.21229492 -4.35351562 6.17382812 C-8.83364748 6.10826522 -11.51940999 6.77006351 -15.125 9.4375 C-15.785 7.7875 -16.445 6.1375 -17.125 4.4375 C-13.84187741 2.67868433 -10.88643005 1.4375 -7.125 1.4375 C-6.25875 0.880625 -6.25875 0.880625 -5.375 0.3125 C-3.125 -0.5625 -3.125 -0.5625 0 0 Z " fill="#77ADC9" transform="translate(642.125,512.5625)"/>
<path d="M0 0 C0.33 0.99 0.66 1.98 1 3 C0.67 3.66 0.34 4.32 0 5 C-2.01668014 5.15399026 -4.04014111 5.22213742 -6.0625 5.25 C-11.91436925 5.58365921 -15.03791655 6.660965 -19.31640625 10.625 C-21.19934135 12.16280314 -22.62857682 12.58487122 -25 13 C-18.05078245 4.09074673 -11.72659169 -1.32199572 0 0 Z " fill="#A0BBA0" transform="translate(626,519)"/>
<path d="M0 0 C1.28583984 -0.02900391 1.28583984 -0.02900391 2.59765625 -0.05859375 C4.9375 0.4375 4.9375 0.4375 6.74609375 2.33984375 C7.9375 4.4375 7.9375 4.4375 7.9375 6.4375 C7.33421875 6.26992188 6.7309375 6.10234375 6.109375 5.9296875 C5.31015625 5.72601562 4.5109375 5.52234375 3.6875 5.3125 C2.50414062 4.99925781 2.50414062 4.99925781 1.296875 4.6796875 C-1.56894557 4.38551387 -2.71153763 4.80378039 -5.0625 6.4375 C-6.37460005 8.13477225 -6.37460005 8.13477225 -7.3125 10.0625 C-7.89 11.17625 -8.4675 12.29 -9.0625 13.4375 C-10.0525 13.4375 -11.0425 13.4375 -12.0625 13.4375 C-12.3925 14.4275 -12.7225 15.4175 -13.0625 16.4375 C-12.40876859 11.07690248 -11.34415302 5.57966331 -7.2734375 1.7578125 C-4.65798313 0.19593339 -3.02915463 0.00456886 0 0 Z " fill="#BBCF96" transform="translate(618.0625,523.5625)"/>
<path d="M0 0 C3.16632707 3.02752917 4.86105613 5.58865157 5.12109375 10.1015625 C5.12456823 12.06811956 5.06662479 14.03456878 5 16 C-6.74342156 21.74122832 -20.13891127 21.98931452 -33 21 C-33.66 20.67 -34.32 20.34 -35 20 C-34.67 19.34 -34.34 18.68 -34 18 C-32.71867187 18.02320313 -31.43734375 18.04640625 -30.1171875 18.0703125 C-13.34245889 18.37947067 -13.34245889 18.37947067 3 15 C3.42589023 9.46342706 1.905247 5.10334017 0 0 Z " fill="#2E394C" transform="translate(483,555)"/>
<path d="M0 0 C1.32 0.33 2.64 0.66 4 1 C4 1.66 4 2.32 4 3 C7.8063457 2.32829194 11.35206816 1.27253436 15 0 C14.09066991 1.27609323 13.17217147 2.54565553 12.25 3.8125 C11.73953125 4.52019531 11.2290625 5.22789062 10.703125 5.95703125 C8.97517642 8.02977691 7.21473524 9.47375854 5 11 C4.01 9.68 3.02 8.36 2 7 C0.02 7.66 -1.96 8.32 -4 9 C-4 7.68 -4 6.36 -4 5 C-3.34 4.67 -2.68 4.34 -2 4 C-0.86649466 1.98330173 -0.86649466 1.98330173 0 0 Z " fill="#89B0B6" transform="translate(631,549)"/>
<path d="M0 0 C6.17653962 0.39848643 11.01450343 1.57340802 16.6953125 4.015625 C19.17931477 5.11375116 19.17931477 5.11375116 22.5625 6.1875 C25 7 25 7 26 8 C27.56172745 8.08685603 29.12729344 8.10702219 30.69140625 8.09765625 C32.10776367 8.09282227 32.10776367 8.09282227 33.55273438 8.08789062 C35.04256836 8.07532227 35.04256836 8.07532227 36.5625 8.0625 C37.55958984 8.05798828 38.55667969 8.05347656 39.58398438 8.04882812 C42.05604849 8.03700007 44.52799518 8.02051849 47 8 C43.50856451 11.49143549 38.16566529 10.54498676 33.45092773 10.58544922 C23.22306565 10.37008771 14.33427744 6.90068439 5 3 C3.48212891 2.39285156 3.48212891 2.39285156 1.93359375 1.7734375 C1.29550781 1.51820313 0.65742188 1.26296875 0 1 C0 0.67 0 0.34 0 0 Z " fill="#656D88" transform="translate(459,379)"/>
<path d="M0 0 C2 3 2 3 2.125 5.5 C1 8 1 8 -2.3125 9.625 C-6.93002215 11.09725344 -11.65033614 12.22914535 -16.36328125 13.3515625 C-19.08247304 13.98275618 -19.08247304 13.98275618 -22 15 C-22.33 14.34 -22.66 13.68 -23 13 C-19.91190305 11.23537317 -18.76687864 11 -15 11 C-15 10.34 -15 9.68 -15 9 C-13.06441401 8.32779649 -11.12645628 7.66241923 -9.1875 7 C-8.10855469 6.62875 -7.02960937 6.2575 -5.91796875 5.875 C-3 5 -3 5 0 5 C0 3.35 0 1.7 0 0 Z " fill="#273762" transform="translate(658,345)"/>
<path d="M0 0 C-1.65 0.33 -3.3 0.66 -5 1 C-5 1.66 -5 2.32 -5 3 C-14.63862168 5.52816306 -24.11436703 5.18269137 -34 5 C-34.33 4.34 -34.66 3.68 -35 3 C-33.69546875 2.96261719 -32.3909375 2.92523438 -31.046875 2.88671875 C-22.14389103 2.57146331 -13.78576484 2.20415601 -5.21484375 -0.4765625 C-3 -1 -3 -1 0 0 Z " fill="#4F608C" transform="translate(519,386)"/>
<path d="M0 0 C0.721875 0.804375 1.44375 1.60875 2.1875 2.4375 C8.15138454 7.47619959 17.63530718 6.03327421 25 6 C25 5.34 25 4.68 25 4 C26.65 4 28.3 4 30 4 C30 4.99 30 5.98 30 7 C21.92987829 9.15203246 12.98027735 10.72873307 4.875 7.875 C2 6 2 6 0.5625 2.8125 C0.376875 1.884375 0.19125 0.95625 0 0 Z " fill="#5F646D" transform="translate(444,564)"/>
<path d="M0 0 C0 0.66 0 1.32 0 2 C-4.455 2.495 -4.455 2.495 -9 3 C-9 3.66 -9 4.32 -9 5 C-18.43596145 7.01172782 -27.29164525 8.49644996 -37 8 C-33.28125 5.953125 -33.28125 5.953125 -30.75 6.375 C-30.1725 6.58125 -29.595 6.7875 -29 7 C-29 6.34 -29 5.68 -29 5 C-21.125 4 -21.125 4 -20 4 C-16.41566873 3.15485242 -12.83527677 2.29557915 -9.2578125 1.421875 C-8.12859375 1.15117187 -8.12859375 1.15117187 -6.9765625 0.875 C-6.28643066 0.70742188 -5.59629883 0.53984375 -4.88525391 0.3671875 C-3 0 -3 0 0 0 Z " fill="#6E7897" transform="translate(524,380)"/>
<path d="M0 0 C8.52058006 0.94673112 16.79398252 2.50251642 25 5 C25 5.66 25 6.32 25 7 C25.928125 7.103125 26.85625 7.20625 27.8125 7.3125 C31.03254358 8.0070192 32.02579865 8.47740939 34 11 C30.09387668 11.35510212 27.63075987 10.4221476 24.10229492 8.85327148 C19.20332071 6.86489442 14.02542867 5.59811045 8.94335938 4.16210938 C8.07904297 3.91138672 7.21472656 3.66066406 6.32421875 3.40234375 C5.54135498 3.18054443 4.75849121 2.95874512 3.9519043 2.73022461 C2 2 2 2 0 0 Z " fill="#464B5B" transform="translate(400,363)"/>
<path d="M0 0 C0.66 0 1.32 0 2 0 C2.19377594 10.31318635 1.26355985 19.20932045 -2 29 C-2.99 29.33 -3.98 29.66 -5 30 C-4.81824219 29.04746338 -4.81824219 29.04746338 -4.6328125 28.07568359 C-4.08290216 25.17649283 -3.54138409 22.27579449 -3 19.375 C-2.80921875 18.37597656 -2.6184375 17.37695312 -2.421875 16.34765625 C-1.51915067 11.47939288 -0.87134322 6.96936804 -1 2 C-0.67 1.34 -0.34 0.68 0 0 Z " fill="#25A5E7" transform="translate(596,428)"/>
<path d="M0 0 C0 0.66 0 1.32 0 2 C-2.125 3.4375 -2.125 3.4375 -5 5 C-5.845625 5.515625 -6.69125 6.03125 -7.5625 6.5625 C-13.99204139 9.25121731 -21.0487173 10.16581041 -28 10 C-28 9.34 -28 8.68 -28 8 C-26.865625 7.75765625 -25.73125 7.5153125 -24.5625 7.265625 C-17.03022354 5.60588596 -7.0878769 0 0 0 Z " fill="#151E32" transform="translate(414,531)"/>
<path d="M0 0 C-4.76484476 3.17656317 -10.33613132 4.16646128 -15.82397461 5.6237793 C-17.92944741 6.18535221 -20.03005544 6.76303658 -22.13085938 7.34179688 C-23.47108812 7.70151355 -24.81157506 8.06026986 -26.15234375 8.41796875 C-27.36913818 8.74563232 -28.58593262 9.0732959 -29.83959961 9.41088867 C-32.76589802 9.95636245 -34.26535617 10.0417893 -37 9 C-32.19514345 7.07805738 -27.62263825 5.63232006 -22.55859375 4.60546875 C-19.43423222 3.86611602 -16.42677666 2.87128448 -13.375 1.875 C-8.67061583 0.38592177 -4.90495117 -0.45627453 0 0 Z " fill="#1D4387" transform="translate(612,365)"/>
<path d="M0 0 C0.33 0 0.66 0 1 0 C1 1.98 1 3.96 1 6 C-7.67268685 9.17179236 -15.65950041 11.7863919 -25 12 C-22.16876044 9.66395361 -19.8075616 8.44525649 -16.26953125 7.5 C-15.38458984 7.2525 -14.49964844 7.005 -13.58789062 6.75 C-11.72670665 6.2470481 -9.8647136 5.74708132 -8.00195312 5.25 C-7.12087891 5.0025 -6.23980469 4.755 -5.33203125 4.5 C-4.52483643 4.2834375 -3.7176416 4.066875 -2.88598633 3.84375 C-2.26361084 3.5653125 -1.64123535 3.286875 -1 3 C-0.67 2.01 -0.34 1.02 0 0 Z " fill="#525B76" transform="translate(657,344)"/>
<path d="M0 0 C0.33 0 0.66 0 1 0 C1 1.98 1 3.96 1 6 C-0.30788739 6.49161725 -1.62171907 6.96741758 -2.9375 7.4375 C-3.66839844 7.70433594 -4.39929688 7.97117187 -5.15234375 8.24609375 C-12.41587677 10.16908672 -19.96474305 10.20568417 -27.4375 10.25 C-28.78231445 10.2809375 -28.78231445 10.2809375 -30.15429688 10.3125 C-31.00958984 10.31765625 -31.86488281 10.3228125 -32.74609375 10.328125 C-33.90129517 10.34214355 -33.90129517 10.34214355 -35.07983398 10.35644531 C-35.71348877 10.23881836 -36.34714355 10.12119141 -37 10 C-37.66 9.01 -38.32 8.02 -39 7 C-37.88625 7.2475 -37.88625 7.2475 -36.75 7.5 C-24.59068249 9.12124233 -11.94742457 7.55522953 0 5 C0 3.35 0 1.7 0 0 Z " fill="#4B515D" transform="translate(486,564)"/>
<path d="M0 0 C0.33 0 0.66 0 1 0 C1.54652302 14.81684623 1.54652302 14.81684623 -3.25 20.8125 C-6.08401511 23.0668302 -8.6267993 24.6800519 -12 26 C-12.99 25.67 -13.98 25.34 -15 25 C-15 24.34 -15 23.68 -15 23 C-14.45730469 22.81824219 -13.91460938 22.63648438 -13.35546875 22.44921875 C-12.64003906 22.19785156 -11.92460938 21.94648437 -11.1875 21.6875 C-10.12595703 21.32205078 -10.12595703 21.32205078 -9.04296875 20.94921875 C-6.03494574 19.55160959 -4.47729609 18.03414152 -3.0859375 15.01953125 C-1.46517009 9.98802803 -0.47886376 5.26750131 0 0 Z " fill="#89C5E0" transform="translate(650,527)"/>
<path d="M0 0 C0.33 0 0.66 0 1 0 C1 1.98 1 3.96 1 6 C1.62648438 6.03738281 2.25296875 6.07476562 2.8984375 6.11328125 C3.71570313 6.17902344 4.53296875 6.24476563 5.375 6.3125 C6.59316406 6.39951172 6.59316406 6.39951172 7.8359375 6.48828125 C10 7 10 7 12 10 C14.08171404 10.9011261 14.08171404 10.9011261 16.4375 11.5 C19.81162442 12.43385981 21.69463683 13.33141241 24 16 C15.86184696 13.69356492 7.94317882 10.89571216 0 8 C0 5.36 0 2.72 0 0 Z " fill="#262B3C" transform="translate(375,350)"/>
<path d="M0 0 C5.70256905 -0.50689503 9.76653216 0.84460199 15.06640625 2.91015625 C19.62117356 4.60227353 24.2959723 5.79897165 29 7 C26.09330538 7.85305168 23.68951127 8.07289715 20.671875 7.87890625 C19.87265625 7.83056641 19.0734375 7.78222656 18.25 7.73242188 C17.425 7.67634766 16.6 7.62027344 15.75 7.5625 C14.90953125 7.51029297 14.0690625 7.45808594 13.203125 7.40429688 C11.1350648 7.27504311 9.0674778 7.13825726 7 7 C7 6.67 7 6.34 7 6 C8.98 5.67 10.96 5.34 13 5 C8.60748167 2.97944157 4.84659077 1.59104765 0 1 C0 0.67 0 0.34 0 0 Z " fill="#565B65" transform="translate(394,522)"/>
<path d="M0 0 C2.10959206 4.21918411 2.46165221 7.53413042 2.6875 12.125 C2.73455078 12.85332031 2.78160156 13.58164062 2.83007812 14.33203125 C3.13446065 19.7310787 3.13446065 19.7310787 2 22 C2 23.98570441 2.00231749 25.97153763 2.03125 27.95703125 C1.99398901 30.39296825 1.59001673 32.63993309 1 35 C0.67 35 0.34 35 0 35 C0 23.45 0 11.9 0 0 Z " fill="#22B3EE" transform="translate(594,408)"/>
<path d="M0 0 C0.66 0 1.32 0 2 0 C1.95359375 0.78503906 1.9071875 1.57007813 1.859375 2.37890625 C1.62721266 9.13648871 1.53111937 13.72901259 6 19 C8.39426615 20.13304672 10.35179261 20.54165641 13 21 C13 21.33 13 21.66 13 22 C9.7 21.67 6.4 21.34 3 21 C3 20.34 3 19.68 3 19 C2.34 19 1.68 19 1 19 C-0.8449056 12.54283042 -2.18959031 6.56877092 0 0 Z " fill="#CCDB80" transform="translate(606,537)"/>
<path d="M0 0 C0.33 0.99 0.66 1.98 1 3 C1.66 3 2.32 3 3 3 C3 4.98 3 6.96 3 9 C2.01 9.33 1.02 9.66 0 10 C-0.33 10.99 -0.66 11.98 -1 13 C-3.31 13.33 -5.62 13.66 -8 14 C-7.59007812 13.57589844 -7.18015625 13.15179687 -6.7578125 12.71484375 C-2.96922332 8.59090098 -1.12091066 5.49246223 0 0 Z " fill="#CADB9B" transform="translate(627,544)"/>
<path d="M0 0 C0.66 0.33 1.32 0.66 2 1 C1.42308522 4.16854747 0.58353113 5.78226459 -1.72265625 8.015625 C-2.26083984 8.54414062 -2.79902344 9.07265625 -3.35351562 9.6171875 C-3.91748047 10.15601563 -4.48144531 10.69484375 -5.0625 11.25 C-5.63033203 11.80429687 -6.19816406 12.35859375 -6.78320312 12.9296875 C-8.18212469 14.29334214 -9.59019114 15.64760417 -11 17 C-11.99 16.67 -12.98 16.34 -14 16 C-13.24074219 15.26394531 -12.48148438 14.52789063 -11.69921875 13.76953125 C-10.69504479 12.7841269 -9.69115346 11.79843448 -8.6875 10.8125 C-8.18798828 10.32974609 -7.68847656 9.84699219 -7.17382812 9.34960938 C-4.23648806 6.45117447 -1.94921782 3.63898344 0 0 Z " fill="#72A6BF" transform="translate(654,539)"/>
<path d="M0 0 C0.66 0.33 1.32 0.66 2 1 C1.67 2.65 1.34 4.3 1 6 C-1.76791945 6.86478781 -4.53865626 7.71711674 -7.3125 8.5625 C-8.09818359 8.80935547 -8.88386719 9.05621094 -9.69335938 9.31054688 C-10.45068359 9.53935547 -11.20800781 9.76816406 -11.98828125 10.00390625 C-12.68477783 10.21861572 -13.38127441 10.4333252 -14.09887695 10.65454102 C-16 11 -16 11 -19 10 C-15.66666667 8.66666667 -12.33333333 7.33333333 -9 6 C-8.12730469 5.62617188 -7.25460937 5.25234375 -6.35546875 4.8671875 C-4 4 -4 4 -1 4 C-0.67 2.68 -0.34 1.36 0 0 Z " fill="#6A6F82" transform="translate(655,342)"/>
<path d="M0 0 C0.66 0.33 1.32 0.66 2 1 C1.34 5.62 0.68 10.24 0 15 C-0.66 15 -1.32 15 -2 15 C-2.33 16.32 -2.66 17.64 -3 19 C-3.92277802 15.96998261 -4.02219223 13.63459814 -3.625 10.5 C-3.53476562 9.7471875 -3.44453125 8.994375 -3.3515625 8.21875 C-2.43514644 2.43514644 -2.43514644 2.43514644 0 0 Z " fill="#23B6EE" transform="translate(577,408)"/>
<path d="M0 0 C4.29 0 8.58 0 13 0 C13 0.99 13 1.98 13 3 C9.73454239 4.88391785 6.71888239 5.49287967 3 6 C0 2.25 0 2.25 0 0 Z " fill="#91AB7B" transform="translate(612,562)"/>
<path d="M0 0 C0.33 0 0.66 0 1 0 C1.30353638 3.06241163 1.56864125 6.12024908 1.8125 9.1875 C1.90208984 10.05181641 1.99167969 10.91613281 2.08398438 11.80664062 C2.55691411 18.30320166 2.55691411 18.30320166 -0.48828125 22.11328125 C-1.31714844 22.73589844 -2.14601563 23.35851562 -3 24 C-3.66 23.67 -4.32 23.34 -5 23 C-4.29423828 21.78957031 -4.29423828 21.78957031 -3.57421875 20.5546875 C-1.7118857 16.34941932 -1.23163748 12.66245157 -0.8125 8.125 C-0.73064453 7.34125 -0.64878906 6.5575 -0.56445312 5.75 C-0.36588325 3.83438471 -0.18148253 1.91730958 0 0 Z " fill="#2FBCF0" transform="translate(547,450)"/>
<path d="M0 0 C-6.97688076 4.65125384 -15.68665692 6.65202691 -24 6 C-20.745987 3.830658 -17.99869282 2.9609947 -14.25 1.875 C-13.05890625 1.52179688 -11.8678125 1.16859375 -10.640625 0.8046875 C-6.9720114 -0.00618632 -3.74362434 -0.14398555 0 0 Z " fill="#4F5B80" transform="translate(632,356)"/>
<path d="M0 0 C-13.91071429 5.36904762 -13.91071429 5.36904762 -20 5 C-19.67 4.01 -19.34 3.02 -19 2 C-18.33613281 1.86722656 -17.67226563 1.73445313 -16.98828125 1.59765625 C-15.66376953 1.33275391 -15.66376953 1.33275391 -14.3125 1.0625 C-11.65625 0.53125 -11.65625 0.53125 -9 0 C-7.72189453 -0.31130859 -7.72189453 -0.31130859 -6.41796875 -0.62890625 C-3.9153002 -1.01299916 -2.37958482 -0.79319494 0 0 Z " fill="#50618D" transform="translate(608,363)"/>
<path d="M0 0 C3.34624581 1.6731229 4.00372318 4.99210479 5.3125 8.35546875 C6.33368665 12.28355605 5.51308862 14.29293288 4 18 C4 18.99 4 19.98 4 21 C3.34 21 2.68 21 2 21 C1.93941406 19.98679687 1.87882813 18.97359375 1.81640625 17.9296875 C1.73193296 16.57811486 1.64728843 15.22655291 1.5625 13.875 C1.50352539 12.87726563 1.50352539 12.87726563 1.44335938 11.859375 C1.187848 7.84981183 0.73217587 3.95005804 0 0 Z " fill="#1CA1E6" transform="translate(594,406)"/>
<path d="M0 0 C-3.47521793 2.31681195 -5.90896006 2.42581896 -10 3 C-10.60457031 3.32742188 -11.20914063 3.65484375 -11.83203125 3.9921875 C-14.65898209 5.30633762 -17.14861967 5.42273607 -20.25 5.625 C-21.32765625 5.69976562 -22.4053125 5.77453125 -23.515625 5.8515625 C-24.33546875 5.90054687 -25.1553125 5.94953125 -26 6 C-22.41329155 4.12867385 -18.91763956 3.04470388 -15 2 C-14.34515625 1.81179688 -13.6903125 1.62359375 -13.015625 1.4296875 C-8.53573923 0.19685072 -4.6446029 -0.19352512 0 0 Z " fill="#3E5993" transform="translate(540,382)"/>
<path d="M0 0 C-0.99 0.495 -0.99 0.495 -2 1 C-2.69937532 2.31647119 -3.36729133 3.65022151 -4 5 C-5 6 -5 6 -6.84765625 6.09765625 C-8.8984375 6.06510417 -10.94921875 6.03255208 -13 6 C-13 5.34 -13 4.68 -13 4 C-8.38987758 1.04952165 -5.63470383 -0.5497272 0 0 Z " fill="#3D4A6D" transform="translate(517,339)"/>
<path d="M0 0 C0.99 0.33 1.98 0.66 3 1 C-5.61546422 9.86162034 -5.61546422 9.86162034 -11 11 C-4.27521008 2.77310924 -4.27521008 2.77310924 0 0 Z " fill="#A3BB8C" transform="translate(612,521)"/>
<path d="M0 0 C-1.11328125 1.984375 -1.11328125 1.984375 -3 4 C-5.91796875 4.390625 -5.91796875 4.390625 -9.1875 4.25 C-10.27417969 4.21390625 -11.36085938 4.1778125 -12.48046875 4.140625 C-13.31191406 4.09421875 -14.14335937 4.0478125 -15 4 C-15 3.34 -15 2.68 -15 2 C-9.68670645 -0.08989546 -5.71271928 -1.6112798 0 0 Z " fill="#1D2331" transform="translate(383,536)"/>
<path d="M0 0 C1.8125 0.375 1.8125 0.375 4 1 C5.66623639 1.03786901 7.33397597 1.04627845 9 1 C8.38125 1.28875 7.7625 1.5775 7.125 1.875 C4.86674235 2.93720042 4.86674235 2.93720042 3 5 C0.9765625 5.66796875 0.9765625 5.66796875 -1.375 6.1875 C-2.53128906 6.45626953 -2.53128906 6.45626953 -3.7109375 6.73046875 C-6.11082272 7.01304909 -7.71670535 6.73503321 -10 6 C-9.44570313 5.73445313 -8.89140625 5.46890625 -8.3203125 5.1953125 C-7.59585938 4.84210938 -6.87140625 4.48890625 -6.125 4.125 C-5.40570312 3.77695312 -4.68640625 3.42890625 -3.9453125 3.0703125 C-1.84864981 2.03442457 -1.84864981 2.03442457 0 0 Z " fill="#656F8F" transform="translate(605,357)"/>
<path d="M0 0 C0.66 0.66 1.32 1.32 2 2 C-1.51822249 6.43601966 -5.75390186 7.52033129 -11 9 C-11 7.68 -11 6.36 -11 5 C-9.39125 4.87625 -9.39125 4.87625 -7.75 4.75 C-3.7261549 3.94523098 -2.51830747 3.12270126 0 0 Z " fill="#2697DE" transform="translate(544,473)"/>
<path d="M0 0 C-2.72588833 1.00981089 -5.45512264 2.00803308 -8.1875 3 C-8.95642578 3.28617187 -9.72535156 3.57234375 -10.51757812 3.8671875 C-14.45822357 5.28784938 -17.74151681 6.40963365 -22 6 C-15.41136986 1.60757991 -7.96386896 -2.19678563 0 0 Z " fill="#55699A" transform="translate(558,375)"/>
<path d="M0 0 C-1.14591488 3.43774463 -1.95688598 4.17413159 -5 6 C-6.32 6 -7.64 6 -9 6 C-8.625 3.5625 -8.625 3.5625 -8 1 C-5.29120665 -0.35439668 -2.99066732 -0.06501451 0 0 Z " fill="#ABACAF" transform="translate(472,555)"/>
<path d="M0 0 C1.32 0.33 2.64 0.66 4 1 C3.9375 2.75 3.9375 2.75 3 5 C0.75835678 6.59501537 -1.53566643 7.74543018 -4 9 C-4 7.68 -4 6.36 -4 5 C-3.34 4.67 -2.68 4.34 -2 4 C-0.86649466 1.98330173 -0.86649466 1.98330173 0 0 Z " fill="#AAC6B4" transform="translate(631,549)"/>
<path d="M0 0 C2.97 1.32 5.94 2.64 9 4 C9 4.66 9 5.32 9 6 C7.783125 5.814375 6.56625 5.62875 5.3125 5.4375 C1.97022061 5.01006818 -0.71968417 5.07741117 -4 6 C-1.125 1.125 -1.125 1.125 0 0 Z " fill="#1382D3" transform="translate(585,395)"/>
<path d="M0 0 C5.99590178 0.61182671 11.78375271 1.49778532 15.9375 6.1875 C16.288125 6.785625 16.63875 7.38375 17 8 C13.71949124 6.95983868 10.59227882 5.82117492 7.4375 4.4375 C4.55057934 3.23024227 2.07373688 2.46571771 -1 2 C-0.67 1.34 -0.34 0.68 0 0 Z " fill="#6E717E" transform="translate(432,368)"/>
<path d="M0 0 C-0.34879632 3.25543229 -1.02133261 4.01873107 -3.5625 6.25 C-4.366875 6.8275 -5.17125 7.405 -6 8 C-6.66 6.35 -7.32 4.7 -8 3 C-2 0 -2 0 0 0 Z " fill="#83ABB5" transform="translate(633,514)"/>
<path d="M0 0 C0.66 1.32 1.32 2.64 2 4 C3.41702513 3.85769192 4.8336096 3.71099254 6.25 3.5625 C7.03890625 3.48128906 7.8278125 3.40007812 8.640625 3.31640625 C10.82364639 3.02365007 12.8773182 2.57935581 15 2 C14.34 3.32 13.68 4.64 13 6 C11.39620659 6.05416188 9.79188594 6.09286638 8.1875 6.125 C7.29417969 6.14820313 6.40085937 6.17140625 5.48046875 6.1953125 C3 6 3 6 0 4 C0 2.68 0 1.36 0 0 Z " fill="#2FB2EB" transform="translate(527,472)"/>
<path d="M0 0 C1.98 0 3.96 0 6 0 C6 0.66 6 1.32 6 2 C6.99 1.67 7.98 1.34 9 1 C8.67 2.65 8.34 4.3 8 6 C5.6875 5.8125 5.6875 5.8125 3 5 C1.1875 2.4375 1.1875 2.4375 0 0 Z " fill="#B0CFCD" transform="translate(623,524)"/>
<path d="M0 0 C-2.46153846 4.8 -2.46153846 4.8 -5.1875 5.8125 C-5.785625 5.874375 -6.38375 5.93625 -7 6 C-7 5.34 -7 4.68 -7 4 C-7.99 4 -8.98 4 -10 4 C-10 3.34 -10 2.68 -10 2 C-6.49223216 0.39644899 -3.85645121 -0.22036864 0 0 Z " fill="#98C2D0" transform="translate(636,520)"/>
<path d="M0 0 C6.62177926 0.30656385 11.22125154 1.74288723 17 5 C12.17945045 6.62145758 8.51637777 4.91428122 4 3 C1.4375 1.3125 1.4375 1.3125 0 0 Z " fill="#464D63" transform="translate(434,374)"/>
<path d="M0 0 C3.14330223 0.3492558 4.79491452 0.83925733 7.3125 2.8125 C9 5 9 5 9 9 C8.34 9 7.68 9 7 9 C5.65080468 7.34614767 4.31866272 5.678298 3 4 C2.01 3.34 1.02 2.68 0 2 C0 1.34 0 0.68 0 0 Z " fill="#292D31" transform="translate(423,662)"/>
<path d="M0 0 C4.95 0.99 4.95 0.99 10 2 C10 2.66 10 3.32 10 4 C11.32 4.33 12.64 4.66 14 5 C10.60104332 6.13298556 9.73016562 5.85659602 6.4375 4.75 C5.65246094 4.49734375 4.86742187 4.2446875 4.05859375 3.984375 C2 3 2 3 0 0 Z " fill="#4B5472" transform="translate(458,381)"/>
<path d="M0 0 C3.3 0 6.6 0 10 0 C7.56159764 2.43840236 5.14759102 3.62292893 2 5 C1.34 4.67 0.68 4.34 0 4 C0 2.68 0 1.36 0 0 Z " fill="#2B9ADF" transform="translate(579,462)"/>
<path d="M0 0 C-0.33 0.66 -0.66 1.32 -1 2 C-3.33247815 2.62852934 -5.69291467 3.15535246 -8.0625 3.625 C-9.35285156 3.88539063 -10.64320313 4.14578125 -11.97265625 4.4140625 C-12.97167969 4.60742188 -13.97070312 4.80078125 -15 5 C-12.6050586 2.18614146 -10.46053694 1.26695912 -6.9375 0.25 C-5.62072266 -0.14445312 -5.62072266 -0.14445312 -4.27734375 -0.546875 C-2 -1 -2 -1 0 0 Z " fill="#6F7B9E" transform="translate(540,376)"/>
<path d="M0 0 C6.625 0.75 6.625 0.75 10 3 C12.32108669 3.70812814 14.65377147 4.38024152 17 5 C17 5.33 17 5.66 17 6 C10.59859065 5.53444296 5.73230171 3.85288164 0 1 C0 0.67 0 0.34 0 0 Z " fill="#313A56" transform="translate(430,374)"/>
<path d="M0 0 C0.33 0 0.66 0 1 0 C1 1.98 1 3.96 1 6 C-0.4117783 6.53394179 -1.82970244 7.05165104 -3.25 7.5625 C-4.03890625 7.85253906 -4.8278125 8.14257812 -5.640625 8.44140625 C-8.19103452 9.04522837 -9.55322229 8.8473932 -12 8 C-10.75336669 7.49166409 -9.50250613 6.99368855 -8.25 6.5 C-7.55390625 6.2215625 -6.8578125 5.943125 -6.140625 5.65625 C-4 5 -4 5 0 5 C0 3.35 0 1.7 0 0 Z " fill="#3F4858" transform="translate(486,564)"/>
<path d="M0 0 C0.33 0.99 0.66 1.98 1 3 C3.64 3 6.28 3 9 3 C9 3.66 9 4.32 9 5 C5.7 5.33 2.4 5.66 -1 6 C-0.67 4.02 -0.34 2.04 0 0 Z " fill="#334269" transform="translate(521,332)"/>
<path d="M0 0 C0.99 0.33 1.98 0.66 3 1 C2.00310405 3.49223987 1.38477686 4.76416902 -0.9375 6.1875 C-2.60515774 6.84445608 -4.29958645 7.43319548 -6 8 C-6.33 7.34 -6.66 6.68 -7 6 C-6.01 5.67 -5.02 5.34 -4 5 C-2.61423077 3.37667033 -1.27358732 1.71275535 0 0 Z " fill="#9AB699" transform="translate(631,555)"/>
<path d="M0 0 C2.31 0 4.62 0 7 0 C4.36095629 1.41377341 1.92879371 2.37240135 -1 3 C-1 3.66 -1 4.32 -1 5 C-3.64 5.33 -6.28 5.66 -9 6 C-3 2 -3 2 0 2 C0 1.34 0 0.68 0 0 Z " fill="#2B3E6C" transform="translate(636,355)"/>
<path d="M0 0 C0.33 0.99 0.66 1.98 1 3 C1.66 3 2.32 3 3 3 C3 4.98 3 6.96 3 9 C2.01 9.33 1.02 9.66 0 10 C-0.74926071 6.33694766 -1.2380014 3.57644848 0 0 Z " fill="#C8DBB9" transform="translate(627,544)"/>
<path d="M0 0 C8.57142857 0.85714286 8.57142857 0.85714286 12 3 C11.05125 2.979375 10.1025 2.95875 9.125 2.9375 C6.09333717 2.77448174 6.09333717 2.77448174 4 4 C2.32345271 3.72057545 0.65391846 3.39171753 -1 3 C-0.67 2.01 -0.34 1.02 0 0 Z " fill="#75787E" transform="translate(415,529)"/>
<path d="M0 0 C0.66 0.33 1.32 0.66 2 1 C1.67 1.66 1.34 2.32 1 3 C-2.96 3 -6.92 3 -11 3 C-7.48439434 -0.51560566 -4.86370315 -0.17370368 0 0 Z " fill="#1791DC" transform="translate(544,412)"/>
<path d="M0 0 C4.97306516 0.49730652 8.63799813 1.55302334 13 4 C10.44855176 4.93045933 9.25993522 5.08564091 6.640625 4.22265625 C5.85171875 3.83980469 5.0628125 3.45695312 4.25 3.0625 C3.45078125 2.68222656 2.6515625 2.30195313 1.828125 1.91015625 C1.22484375 1.60980469 0.6215625 1.30945313 0 1 C0 0.67 0 0.34 0 0 Z " fill="#3A4A73" transform="translate(470,387)"/>
<path d="M0 0 C2.31 0 4.62 0 7 0 C7 0.66 7 1.32 7 2 C8.32 2.33 9.64 2.66 11 3 C6.47907032 4.45606519 3.48351204 3.27032841 -1 2 C-0.67 1.34 -0.34 0.68 0 0 Z " fill="#707278" transform="translate(387,353)"/>
<path d="M0 0 C0.66 0.33 1.32 0.66 2 1 C1.175 1.7425 0.35 2.485 -0.5 3.25 C-3.44844853 5.87387385 -3.44844853 5.87387385 -3 10 C-3.99 10 -4.98 10 -6 10 C-5.72510809 5.96825194 -5.46508424 4.43105369 -2.4375 1.625 C-1.633125 1.08875 -0.82875 0.5525 0 0 Z " fill="#707277" transform="translate(383,341)"/>
<path d="M0 0 C3.63 0.66 7.26 1.32 11 2 C11 2.66 11 3.32 11 4 C11.66 4.33 12.32 4.66 13 5 C8.02693484 4.50269348 4.36200187 3.44697666 0 1 C0 0.67 0 0.34 0 0 Z " fill="#64666E" transform="translate(391,356)"/>
<path d="M0 0 C4.67692308 1.47692308 4.67692308 1.47692308 6.3125 4.125 C6.539375 4.74375 6.76625 5.3625 7 6 C5.68 6 4.36 6 3 6 C0 2.78571429 0 2.78571429 0 0 Z " fill="#2D323C" transform="translate(387,570)"/>
<path d="M0 0 C1.23556641 0.01740234 1.23556641 0.01740234 2.49609375 0.03515625 C3.32238281 0.04417969 4.14867187 0.05320312 5 0.0625 C5.63808594 0.07410156 6.27617188 0.08570313 6.93359375 0.09765625 C7.59359375 1.41765625 8.25359375 2.73765625 8.93359375 4.09765625 C7.49565983 3.78715899 6.05826195 3.47417865 4.62109375 3.16015625 C3.82058594 2.98613281 3.02007813 2.81210937 2.1953125 2.6328125 C-0.06640625 2.09765625 -0.06640625 2.09765625 -3.06640625 1.09765625 C-2.06640625 0.09765625 -2.06640625 0.09765625 0 0 Z " fill="#CADCAF" transform="translate(617.06640625,525.90234375)"/>
<path d="M0 0 C-0.58265625 0.26554688 -1.1653125 0.53109375 -1.765625 0.8046875 C-4.06174228 2.03302996 -5.80356018 3.40314939 -7.75 5.125 C-8.36359375 5.66382813 -8.9771875 6.20265625 -9.609375 6.7578125 C-10.06828125 7.16773438 -10.5271875 7.57765625 -11 8 C-9.04672006 1.97738686 -6.47971237 -0.53997603 0 0 Z " fill="#D1F5FC" transform="translate(643,519)"/>
<path d="M0 0 C0.33 0.66 0.66 1.32 1 2 C-2.96 2 -6.92 2 -11 2 C-10 0 -10 0 -8.3125 -1.25 C-5.00322081 -2.32327974 -3.11054149 -1.38246289 0 0 Z " fill="#6B9FBB" transform="translate(645,514)"/>
<path d="M0 0 C0.33 0 0.66 0 1 0 C1.36923077 6.52307692 1.36923077 6.52307692 -0.5 8.9375 C-0.995 9.288125 -1.49 9.63875 -2 10 C-2.66 9.67 -3.32 9.34 -4 9 C-3.71125 8.443125 -3.4225 7.88625 -3.125 7.3125 C-1.9586747 4.91505355 -0.9660119 2.48403061 0 0 Z " fill="#5C7991" transform="translate(657,498)"/>
<path d="M0 0 C2.125 0.9375 2.125 0.9375 4 2 C3.67 2.99 3.34 3.98 3 5 C1.35 4.67 -0.3 4.34 -2 4 C-2 3.01 -2 2.02 -2 1 C-1.34 0.67 -0.68 0.34 0 0 Z " fill="#283252" transform="translate(504,305)"/>
<path d="M0 0 C2.97 0 5.94 0 9 0 C9.33 0.66 9.66 1.32 10 2 C7.42786866 3.61949011 6.32330841 4.04408751 3.25 3.625 C2.5075 3.41875 1.765 3.2125 1 3 C0.67 2.01 0.34 1.02 0 0 Z " fill="#9BB379" transform="translate(612,562)"/>
<path d="M0 0 C-1 2 -1 2 -3.375 3.1875 C-6 4 -6 4 -9 3 C-9 2.34 -9 1.68 -9 1 C-6.04335481 -0.4783226 -3.25770263 -0.06032783 0 0 Z " fill="#92C0D1" transform="translate(644,549)"/>
<path d="M0 0 C-3.74525799 3.74525799 -7.98270909 3.68909949 -13 4 C-12 2 -12 2 -8.75 0.875 C-5.62299365 0.14536518 -3.17377095 -0.19234975 0 0 Z " fill="#3E5183" transform="translate(613,362)"/>
<path d="M0 0 C-0.66 1.32 -1.32 2.64 -2 4 C-3.98 4 -5.96 4 -8 4 C-8 3.34 -8 2.68 -8 2 C-2.25 0 -2.25 0 0 0 Z " fill="#1D3261" transform="translate(512,341)"/>
<path d="M0 0 C0.66 0.33 1.32 0.66 2 1 C1.360625 1.598125 0.72125 2.19625 0.0625 2.8125 C-2.20310389 4.90810337 -2.20310389 4.90810337 -3 8 C-3.99 7.67 -4.98 7.34 -6 7 C-4.02 4.69 -2.04 2.38 0 0 Z " fill="#178EDA" transform="translate(531,415)"/>
<path d="M0 0 C3.14737182 0.69941596 6.02588876 1.76078698 9 3 C9 3.33 9 3.66 9 4 C6.03 3.67 3.06 3.34 0 3 C0 2.01 0 1.02 0 0 Z " fill="#494C55" transform="translate(376,353)"/>
<path d="M0 0 C0.99 0.33 1.98 0.66 3 1 C1.35 3.64 -0.3 6.28 -2 9 C-3.21185923 5.36442231 -2.59260392 4.36216382 -1 1 C-0.67 0.67 -0.34 0.34 0 0 Z " fill="#CEDD90" transform="translate(611,528)"/>
<path d="M0 0 C0.66 0.33 1.32 0.66 2 1 C0.68 2.32 -0.64 3.64 -2 5 C-1.67 5.66 -1.34 6.32 -1 7 C-2.65 7.33 -4.3 7.66 -6 8 C-4.55746343 4.63408134 -2.66735273 2.48952921 0 0 Z " fill="#737479" transform="translate(386,527)"/>
<path d="M0 0 C2.475 0.99 2.475 0.99 5 2 C5 3.32 5 4.64 5 6 C4.01 5.67 3.02 5.34 2 5 C0.8125 2.4375 0.8125 2.4375 0 0 Z " fill="#393B3E" transform="translate(362,637)"/>
<path d="M0 0 C2.97 1.98 2.97 1.98 6 4 C3 5 3 5 -1 5 C-0.67 3.35 -0.34 1.7 0 0 Z " fill="#B2D2D5" transform="translate(631,545)"/>
<path d="M0 0 C2.97 0 5.94 0 9 0 C9 0.33 9 0.66 9 1 C7.741875 1.28875 6.48375 1.5775 5.1875 1.875 C2.1460601 2.57303539 0.69330122 3.20446585 -2 5 C-1.34 3.35 -0.68 1.7 0 0 Z " fill="#1FAFEC" transform="translate(581,402)"/>
<path d="M0 0 C-0.66 1.32 -1.32 2.64 -2 4 C-3.32 4 -4.64 4 -6 4 C-5.67 3.01 -5.34 2.02 -5 1 C-3 0 -3 0 0 0 Z " fill="#DFDFE0" transform="translate(470,556)"/>
<path d="M0 0 C0.66 0.99 1.32 1.98 2 3 C1.67 3.66 1.34 4.32 1 5 C-0.32 5 -1.64 5 -3 5 C-2.625 3.0625 -2.625 3.0625 -2 1 C-1.34 0.67 -0.68 0.34 0 0 Z " fill="#9EBCB2" transform="translate(625,519)"/>
<path d="M0 0 C0.66 0.33 1.32 0.66 2 1 C1.38125 1.7425 0.7625 2.485 0.125 3.25 C-1.60437281 5.48801188 -2.86106661 7.43739987 -4 10 C-3.51171875 3.9453125 -3.51171875 3.9453125 -3 2 C-2.01 1.34 -1.02 0.68 0 0 Z " fill="#24BBF0" transform="translate(534,417)"/>
</svg>
